G04 #@! TF.GenerationSoftware,KiCad,Pcbnew,(5.1.5)-3*
G04 #@! TF.CreationDate,2021-10-07T01:12:50-04:00*
G04 #@! TF.ProjectId,RIGHT_Side Panel,52494748-545f-4536-9964-652050616e65,rev?*
G04 #@! TF.SameCoordinates,Original*
G04 #@! TF.FileFunction,Soldermask,Top*
G04 #@! TF.FilePolarity,Negative*
%FSLAX46Y46*%
G04 Gerber Fmt 4.6, Leading zero omitted, Abs format (unit mm)*
G04 Created by KiCad (PCBNEW (5.1.5)-3) date 2021-10-07 01:12:50*
%MOMM*%
%LPD*%
G04 APERTURE LIST*
%ADD10C,0.100000*%
G04 APERTURE END LIST*
D10*
G36*
X25113512Y-201803927D02*
G01*
X25262812Y-201833624D01*
X25426784Y-201901544D01*
X25574354Y-202000147D01*
X25699853Y-202125646D01*
X25798456Y-202273216D01*
X25866376Y-202437188D01*
X25901000Y-202611259D01*
X25901000Y-202788741D01*
X25866376Y-202962812D01*
X25798456Y-203126784D01*
X25699853Y-203274354D01*
X25574354Y-203399853D01*
X25426784Y-203498456D01*
X25262812Y-203566376D01*
X25113512Y-203596073D01*
X25088742Y-203601000D01*
X24911258Y-203601000D01*
X24886488Y-203596073D01*
X24737188Y-203566376D01*
X24573216Y-203498456D01*
X24425646Y-203399853D01*
X24300147Y-203274354D01*
X24201544Y-203126784D01*
X24133624Y-202962812D01*
X24099000Y-202788741D01*
X24099000Y-202611259D01*
X24133624Y-202437188D01*
X24201544Y-202273216D01*
X24300147Y-202125646D01*
X24425646Y-202000147D01*
X24573216Y-201901544D01*
X24737188Y-201833624D01*
X24886488Y-201803927D01*
X24911258Y-201799000D01*
X25088742Y-201799000D01*
X25113512Y-201803927D01*
G37*
G36*
X188251000Y-201151000D02*
G01*
X186649000Y-201151000D01*
X186649000Y-200049000D01*
X188251000Y-200049000D01*
X188251000Y-201151000D01*
G37*
G36*
X63351000Y-201151000D02*
G01*
X61749000Y-201151000D01*
X61749000Y-200049000D01*
X63351000Y-200049000D01*
X63351000Y-201151000D01*
G37*
G36*
X68251000Y-201151000D02*
G01*
X66649000Y-201151000D01*
X66649000Y-200049000D01*
X68251000Y-200049000D01*
X68251000Y-201151000D01*
G37*
G36*
X103351000Y-201151000D02*
G01*
X101749000Y-201151000D01*
X101749000Y-200049000D01*
X103351000Y-200049000D01*
X103351000Y-201151000D01*
G37*
G36*
X108251000Y-201151000D02*
G01*
X106649000Y-201151000D01*
X106649000Y-200049000D01*
X108251000Y-200049000D01*
X108251000Y-201151000D01*
G37*
G36*
X143351000Y-201151000D02*
G01*
X141749000Y-201151000D01*
X141749000Y-200049000D01*
X143351000Y-200049000D01*
X143351000Y-201151000D01*
G37*
G36*
X148251000Y-201151000D02*
G01*
X146649000Y-201151000D01*
X146649000Y-200049000D01*
X148251000Y-200049000D01*
X148251000Y-201151000D01*
G37*
G36*
X183351000Y-201151000D02*
G01*
X181749000Y-201151000D01*
X181749000Y-200049000D01*
X183351000Y-200049000D01*
X183351000Y-201151000D01*
G37*
G36*
X25113512Y-199263927D02*
G01*
X25262812Y-199293624D01*
X25426784Y-199361544D01*
X25574354Y-199460147D01*
X25699853Y-199585646D01*
X25798456Y-199733216D01*
X25866376Y-199897188D01*
X25901000Y-200071259D01*
X25901000Y-200248741D01*
X25866376Y-200422812D01*
X25798456Y-200586784D01*
X25699853Y-200734354D01*
X25574354Y-200859853D01*
X25426784Y-200958456D01*
X25262812Y-201026376D01*
X25113512Y-201056073D01*
X25088742Y-201061000D01*
X24911258Y-201061000D01*
X24886488Y-201056073D01*
X24737188Y-201026376D01*
X24573216Y-200958456D01*
X24425646Y-200859853D01*
X24300147Y-200734354D01*
X24201544Y-200586784D01*
X24133624Y-200422812D01*
X24099000Y-200248741D01*
X24099000Y-200071259D01*
X24133624Y-199897188D01*
X24201544Y-199733216D01*
X24300147Y-199585646D01*
X24425646Y-199460147D01*
X24573216Y-199361544D01*
X24737188Y-199293624D01*
X24886488Y-199263927D01*
X24911258Y-199259000D01*
X25088742Y-199259000D01*
X25113512Y-199263927D01*
G37*
G36*
X25113512Y-196723927D02*
G01*
X25262812Y-196753624D01*
X25426784Y-196821544D01*
X25574354Y-196920147D01*
X25699853Y-197045646D01*
X25798456Y-197193216D01*
X25866376Y-197357188D01*
X25901000Y-197531259D01*
X25901000Y-197708741D01*
X25866376Y-197882812D01*
X25798456Y-198046784D01*
X25699853Y-198194354D01*
X25574354Y-198319853D01*
X25426784Y-198418456D01*
X25262812Y-198486376D01*
X25113512Y-198516073D01*
X25088742Y-198521000D01*
X24911258Y-198521000D01*
X24886488Y-198516073D01*
X24737188Y-198486376D01*
X24573216Y-198418456D01*
X24425646Y-198319853D01*
X24300147Y-198194354D01*
X24201544Y-198046784D01*
X24133624Y-197882812D01*
X24099000Y-197708741D01*
X24099000Y-197531259D01*
X24133624Y-197357188D01*
X24201544Y-197193216D01*
X24300147Y-197045646D01*
X24425646Y-196920147D01*
X24573216Y-196821544D01*
X24737188Y-196753624D01*
X24886488Y-196723927D01*
X24911258Y-196719000D01*
X25088742Y-196719000D01*
X25113512Y-196723927D01*
G37*
G36*
X68251000Y-197951000D02*
G01*
X66649000Y-197951000D01*
X66649000Y-196849000D01*
X68251000Y-196849000D01*
X68251000Y-197951000D01*
G37*
G36*
X63351000Y-197951000D02*
G01*
X61749000Y-197951000D01*
X61749000Y-196849000D01*
X63351000Y-196849000D01*
X63351000Y-197951000D01*
G37*
G36*
X103351000Y-197951000D02*
G01*
X101749000Y-197951000D01*
X101749000Y-196849000D01*
X103351000Y-196849000D01*
X103351000Y-197951000D01*
G37*
G36*
X188251000Y-197951000D02*
G01*
X186649000Y-197951000D01*
X186649000Y-196849000D01*
X188251000Y-196849000D01*
X188251000Y-197951000D01*
G37*
G36*
X183351000Y-197951000D02*
G01*
X181749000Y-197951000D01*
X181749000Y-196849000D01*
X183351000Y-196849000D01*
X183351000Y-197951000D01*
G37*
G36*
X148251000Y-197951000D02*
G01*
X146649000Y-197951000D01*
X146649000Y-196849000D01*
X148251000Y-196849000D01*
X148251000Y-197951000D01*
G37*
G36*
X143351000Y-197951000D02*
G01*
X141749000Y-197951000D01*
X141749000Y-196849000D01*
X143351000Y-196849000D01*
X143351000Y-197951000D01*
G37*
G36*
X108251000Y-197951000D02*
G01*
X106649000Y-197951000D01*
X106649000Y-196849000D01*
X108251000Y-196849000D01*
X108251000Y-197951000D01*
G37*
G36*
X25113512Y-194183927D02*
G01*
X25262812Y-194213624D01*
X25426784Y-194281544D01*
X25574354Y-194380147D01*
X25699853Y-194505646D01*
X25798456Y-194653216D01*
X25866376Y-194817188D01*
X25901000Y-194991259D01*
X25901000Y-195168741D01*
X25866376Y-195342812D01*
X25798456Y-195506784D01*
X25699853Y-195654354D01*
X25574354Y-195779853D01*
X25426784Y-195878456D01*
X25262812Y-195946376D01*
X25113512Y-195976073D01*
X25088742Y-195981000D01*
X24911258Y-195981000D01*
X24886488Y-195976073D01*
X24737188Y-195946376D01*
X24573216Y-195878456D01*
X24425646Y-195779853D01*
X24300147Y-195654354D01*
X24201544Y-195506784D01*
X24133624Y-195342812D01*
X24099000Y-195168741D01*
X24099000Y-194991259D01*
X24133624Y-194817188D01*
X24201544Y-194653216D01*
X24300147Y-194505646D01*
X24425646Y-194380147D01*
X24573216Y-194281544D01*
X24737188Y-194213624D01*
X24886488Y-194183927D01*
X24911258Y-194179000D01*
X25088742Y-194179000D01*
X25113512Y-194183927D01*
G37*
G36*
X25113512Y-191643927D02*
G01*
X25262812Y-191673624D01*
X25426784Y-191741544D01*
X25574354Y-191840147D01*
X25699853Y-191965646D01*
X25798456Y-192113216D01*
X25866376Y-192277188D01*
X25901000Y-192451259D01*
X25901000Y-192628741D01*
X25866376Y-192802812D01*
X25798456Y-192966784D01*
X25699853Y-193114354D01*
X25574354Y-193239853D01*
X25426784Y-193338456D01*
X25262812Y-193406376D01*
X25113512Y-193436073D01*
X25088742Y-193441000D01*
X24911258Y-193441000D01*
X24886488Y-193436073D01*
X24737188Y-193406376D01*
X24573216Y-193338456D01*
X24425646Y-193239853D01*
X24300147Y-193114354D01*
X24201544Y-192966784D01*
X24133624Y-192802812D01*
X24099000Y-192628741D01*
X24099000Y-192451259D01*
X24133624Y-192277188D01*
X24201544Y-192113216D01*
X24300147Y-191965646D01*
X24425646Y-191840147D01*
X24573216Y-191741544D01*
X24737188Y-191673624D01*
X24886488Y-191643927D01*
X24911258Y-191639000D01*
X25088742Y-191639000D01*
X25113512Y-191643927D01*
G37*
G36*
X25901000Y-190901000D02*
G01*
X24099000Y-190901000D01*
X24099000Y-189099000D01*
X25901000Y-189099000D01*
X25901000Y-190901000D01*
G37*
G36*
X183351000Y-161151000D02*
G01*
X181749000Y-161151000D01*
X181749000Y-160049000D01*
X183351000Y-160049000D01*
X183351000Y-161151000D01*
G37*
G36*
X188251000Y-161151000D02*
G01*
X186649000Y-161151000D01*
X186649000Y-160049000D01*
X188251000Y-160049000D01*
X188251000Y-161151000D01*
G37*
G36*
X148251000Y-161151000D02*
G01*
X146649000Y-161151000D01*
X146649000Y-160049000D01*
X148251000Y-160049000D01*
X148251000Y-161151000D01*
G37*
G36*
X143351000Y-161151000D02*
G01*
X141749000Y-161151000D01*
X141749000Y-160049000D01*
X143351000Y-160049000D01*
X143351000Y-161151000D01*
G37*
G36*
X103351000Y-161151000D02*
G01*
X101749000Y-161151000D01*
X101749000Y-160049000D01*
X103351000Y-160049000D01*
X103351000Y-161151000D01*
G37*
G36*
X108251000Y-161151000D02*
G01*
X106649000Y-161151000D01*
X106649000Y-160049000D01*
X108251000Y-160049000D01*
X108251000Y-161151000D01*
G37*
G36*
X63351000Y-161151000D02*
G01*
X61749000Y-161151000D01*
X61749000Y-160049000D01*
X63351000Y-160049000D01*
X63351000Y-161151000D01*
G37*
G36*
X68251000Y-161151000D02*
G01*
X66649000Y-161151000D01*
X66649000Y-160049000D01*
X68251000Y-160049000D01*
X68251000Y-161151000D01*
G37*
G36*
X183351000Y-157951000D02*
G01*
X181749000Y-157951000D01*
X181749000Y-156849000D01*
X183351000Y-156849000D01*
X183351000Y-157951000D01*
G37*
G36*
X143351000Y-157951000D02*
G01*
X141749000Y-157951000D01*
X141749000Y-156849000D01*
X143351000Y-156849000D01*
X143351000Y-157951000D01*
G37*
G36*
X103351000Y-157951000D02*
G01*
X101749000Y-157951000D01*
X101749000Y-156849000D01*
X103351000Y-156849000D01*
X103351000Y-157951000D01*
G37*
G36*
X148251000Y-157951000D02*
G01*
X146649000Y-157951000D01*
X146649000Y-156849000D01*
X148251000Y-156849000D01*
X148251000Y-157951000D01*
G37*
G36*
X63351000Y-157951000D02*
G01*
X61749000Y-157951000D01*
X61749000Y-156849000D01*
X63351000Y-156849000D01*
X63351000Y-157951000D01*
G37*
G36*
X68251000Y-157951000D02*
G01*
X66649000Y-157951000D01*
X66649000Y-156849000D01*
X68251000Y-156849000D01*
X68251000Y-157951000D01*
G37*
G36*
X188251000Y-157951000D02*
G01*
X186649000Y-157951000D01*
X186649000Y-156849000D01*
X188251000Y-156849000D01*
X188251000Y-157951000D01*
G37*
G36*
X108251000Y-157951000D02*
G01*
X106649000Y-157951000D01*
X106649000Y-156849000D01*
X108251000Y-156849000D01*
X108251000Y-157951000D01*
G37*
G36*
X188251000Y-121151000D02*
G01*
X186649000Y-121151000D01*
X186649000Y-120049000D01*
X188251000Y-120049000D01*
X188251000Y-121151000D01*
G37*
G36*
X63351000Y-121151000D02*
G01*
X61749000Y-121151000D01*
X61749000Y-120049000D01*
X63351000Y-120049000D01*
X63351000Y-121151000D01*
G37*
G36*
X183351000Y-121151000D02*
G01*
X181749000Y-121151000D01*
X181749000Y-120049000D01*
X183351000Y-120049000D01*
X183351000Y-121151000D01*
G37*
G36*
X148251000Y-121151000D02*
G01*
X146649000Y-121151000D01*
X146649000Y-120049000D01*
X148251000Y-120049000D01*
X148251000Y-121151000D01*
G37*
G36*
X143351000Y-121151000D02*
G01*
X141749000Y-121151000D01*
X141749000Y-120049000D01*
X143351000Y-120049000D01*
X143351000Y-121151000D01*
G37*
G36*
X108251000Y-121151000D02*
G01*
X106649000Y-121151000D01*
X106649000Y-120049000D01*
X108251000Y-120049000D01*
X108251000Y-121151000D01*
G37*
G36*
X103351000Y-121151000D02*
G01*
X101749000Y-121151000D01*
X101749000Y-120049000D01*
X103351000Y-120049000D01*
X103351000Y-121151000D01*
G37*
G36*
X68251000Y-121151000D02*
G01*
X66649000Y-121151000D01*
X66649000Y-120049000D01*
X68251000Y-120049000D01*
X68251000Y-121151000D01*
G37*
G36*
X148251000Y-117951000D02*
G01*
X146649000Y-117951000D01*
X146649000Y-116849000D01*
X148251000Y-116849000D01*
X148251000Y-117951000D01*
G37*
G36*
X183351000Y-117951000D02*
G01*
X181749000Y-117951000D01*
X181749000Y-116849000D01*
X183351000Y-116849000D01*
X183351000Y-117951000D01*
G37*
G36*
X143351000Y-117951000D02*
G01*
X141749000Y-117951000D01*
X141749000Y-116849000D01*
X143351000Y-116849000D01*
X143351000Y-117951000D01*
G37*
G36*
X108251000Y-117951000D02*
G01*
X106649000Y-117951000D01*
X106649000Y-116849000D01*
X108251000Y-116849000D01*
X108251000Y-117951000D01*
G37*
G36*
X68251000Y-117951000D02*
G01*
X66649000Y-117951000D01*
X66649000Y-116849000D01*
X68251000Y-116849000D01*
X68251000Y-117951000D01*
G37*
G36*
X63351000Y-117951000D02*
G01*
X61749000Y-117951000D01*
X61749000Y-116849000D01*
X63351000Y-116849000D01*
X63351000Y-117951000D01*
G37*
G36*
X188251000Y-117951000D02*
G01*
X186649000Y-117951000D01*
X186649000Y-116849000D01*
X188251000Y-116849000D01*
X188251000Y-117951000D01*
G37*
G36*
X103351000Y-117951000D02*
G01*
X101749000Y-117951000D01*
X101749000Y-116849000D01*
X103351000Y-116849000D01*
X103351000Y-117951000D01*
G37*
G36*
X143351000Y-81151000D02*
G01*
X141749000Y-81151000D01*
X141749000Y-80049000D01*
X143351000Y-80049000D01*
X143351000Y-81151000D01*
G37*
G36*
X148251000Y-81151000D02*
G01*
X146649000Y-81151000D01*
X146649000Y-80049000D01*
X148251000Y-80049000D01*
X148251000Y-81151000D01*
G37*
G36*
X188251000Y-81151000D02*
G01*
X186649000Y-81151000D01*
X186649000Y-80049000D01*
X188251000Y-80049000D01*
X188251000Y-81151000D01*
G37*
G36*
X183351000Y-81151000D02*
G01*
X181749000Y-81151000D01*
X181749000Y-80049000D01*
X183351000Y-80049000D01*
X183351000Y-81151000D01*
G37*
G36*
X63351000Y-81151000D02*
G01*
X61749000Y-81151000D01*
X61749000Y-80049000D01*
X63351000Y-80049000D01*
X63351000Y-81151000D01*
G37*
G36*
X68251000Y-81151000D02*
G01*
X66649000Y-81151000D01*
X66649000Y-80049000D01*
X68251000Y-80049000D01*
X68251000Y-81151000D01*
G37*
G36*
X103351000Y-81151000D02*
G01*
X101749000Y-81151000D01*
X101749000Y-80049000D01*
X103351000Y-80049000D01*
X103351000Y-81151000D01*
G37*
G36*
X108251000Y-81151000D02*
G01*
X106649000Y-81151000D01*
X106649000Y-80049000D01*
X108251000Y-80049000D01*
X108251000Y-81151000D01*
G37*
G36*
X103351000Y-77951000D02*
G01*
X101749000Y-77951000D01*
X101749000Y-76849000D01*
X103351000Y-76849000D01*
X103351000Y-77951000D01*
G37*
G36*
X68251000Y-77951000D02*
G01*
X66649000Y-77951000D01*
X66649000Y-76849000D01*
X68251000Y-76849000D01*
X68251000Y-77951000D01*
G37*
G36*
X108251000Y-77951000D02*
G01*
X106649000Y-77951000D01*
X106649000Y-76849000D01*
X108251000Y-76849000D01*
X108251000Y-77951000D01*
G37*
G36*
X143351000Y-77951000D02*
G01*
X141749000Y-77951000D01*
X141749000Y-76849000D01*
X143351000Y-76849000D01*
X143351000Y-77951000D01*
G37*
G36*
X148251000Y-77951000D02*
G01*
X146649000Y-77951000D01*
X146649000Y-76849000D01*
X148251000Y-76849000D01*
X148251000Y-77951000D01*
G37*
G36*
X63351000Y-77951000D02*
G01*
X61749000Y-77951000D01*
X61749000Y-76849000D01*
X63351000Y-76849000D01*
X63351000Y-77951000D01*
G37*
G36*
X188251000Y-77951000D02*
G01*
X186649000Y-77951000D01*
X186649000Y-76849000D01*
X188251000Y-76849000D01*
X188251000Y-77951000D01*
G37*
G36*
X183351000Y-77951000D02*
G01*
X181749000Y-77951000D01*
X181749000Y-76849000D01*
X183351000Y-76849000D01*
X183351000Y-77951000D01*
G37*
M02*
