G04 #@! TF.GenerationSoftware,KiCad,Pcbnew,(5.1.5)-3*
G04 #@! TF.CreationDate,2021-10-07T01:12:50-04:00*
G04 #@! TF.ProjectId,RIGHT_Side Panel,52494748-545f-4536-9964-652050616e65,rev?*
G04 #@! TF.SameCoordinates,Original*
G04 #@! TF.FileFunction,Copper,L2,Bot*
G04 #@! TF.FilePolarity,Positive*
%FSLAX46Y46*%
G04 Gerber Fmt 4.6, Leading zero omitted, Abs format (unit mm)*
G04 Created by KiCad (PCBNEW (5.1.5)-3) date 2021-10-07 01:12:50*
%MOMM*%
%LPD*%
G04 APERTURE LIST*
%ADD10O,1.700000X1.700000*%
%ADD11R,1.700000X1.700000*%
%ADD12C,0.800000*%
%ADD13C,0.250000*%
%ADD14C,0.254000*%
G04 APERTURE END LIST*
D10*
X25000000Y-202700000D03*
X25000000Y-200160000D03*
X25000000Y-197620000D03*
X25000000Y-195080000D03*
X25000000Y-192540000D03*
D11*
X25000000Y-190000000D03*
D12*
X65000000Y-79224000D03*
X105000000Y-79224000D03*
X145000000Y-79224000D03*
X185000000Y-79224000D03*
X185000000Y-119488000D03*
X145000000Y-119488000D03*
X105000000Y-119488000D03*
X65000000Y-119488000D03*
X65000000Y-158736000D03*
X105000000Y-158736000D03*
X144512000Y-158736000D03*
X185000000Y-158736000D03*
X105000000Y-199000000D03*
X65000000Y-199000000D03*
X145000000Y-199000000D03*
X185000000Y-199000000D03*
X189968000Y-196460000D03*
X190984000Y-166996000D03*
X189968000Y-116196000D03*
X190984000Y-84700000D03*
X59000000Y-124228000D03*
X59000000Y-154708000D03*
X33500000Y-197500000D03*
X58500000Y-198000000D03*
X39960000Y-178370000D03*
X39960000Y-108520000D03*
X45696000Y-85716000D03*
X56364000Y-80636000D03*
D13*
X189968000Y-196460000D02*
X190984000Y-195444000D01*
X190984000Y-195444000D02*
X190984000Y-166996000D01*
X189968000Y-116196000D02*
X190984000Y-115180000D01*
X190984000Y-115180000D02*
X190984000Y-106544000D01*
X190984000Y-106544000D02*
X190984000Y-88764000D01*
X190984000Y-88764000D02*
X190984000Y-84700000D01*
X59000000Y-154708000D02*
X59000000Y-124228000D01*
X25200000Y-197420000D02*
X25000000Y-197620000D01*
X58500000Y-198000000D02*
X58000000Y-197500000D01*
X58000000Y-197500000D02*
X33500000Y-197500000D01*
X39960000Y-178370000D02*
X39960000Y-108520000D01*
X45696000Y-85716000D02*
X50776000Y-80636000D01*
X50776000Y-80636000D02*
X56364000Y-80636000D01*
D14*
G36*
X205873000Y-223873000D02*
G01*
X6127000Y-223873000D01*
X6127000Y-194933740D01*
X23515000Y-194933740D01*
X23515000Y-195226260D01*
X23572068Y-195513158D01*
X23684010Y-195783411D01*
X23846525Y-196026632D01*
X24053368Y-196233475D01*
X24227760Y-196350000D01*
X24053368Y-196466525D01*
X23846525Y-196673368D01*
X23684010Y-196916589D01*
X23572068Y-197186842D01*
X23515000Y-197473740D01*
X23515000Y-197766260D01*
X23572068Y-198053158D01*
X23684010Y-198323411D01*
X23846525Y-198566632D01*
X24053368Y-198773475D01*
X24227760Y-198890000D01*
X24053368Y-199006525D01*
X23846525Y-199213368D01*
X23684010Y-199456589D01*
X23572068Y-199726842D01*
X23515000Y-200013740D01*
X23515000Y-200306260D01*
X23572068Y-200593158D01*
X23684010Y-200863411D01*
X23846525Y-201106632D01*
X24053368Y-201313475D01*
X24227760Y-201430000D01*
X24053368Y-201546525D01*
X23846525Y-201753368D01*
X23684010Y-201996589D01*
X23572068Y-202266842D01*
X23515000Y-202553740D01*
X23515000Y-202846260D01*
X23572068Y-203133158D01*
X23684010Y-203403411D01*
X23846525Y-203646632D01*
X24053368Y-203853475D01*
X24296589Y-204015990D01*
X24566842Y-204127932D01*
X24853740Y-204185000D01*
X25146260Y-204185000D01*
X25433158Y-204127932D01*
X25703411Y-204015990D01*
X25946632Y-203853475D01*
X26153475Y-203646632D01*
X26315990Y-203403411D01*
X26427932Y-203133158D01*
X26485000Y-202846260D01*
X26485000Y-202553740D01*
X26427932Y-202266842D01*
X26315990Y-201996589D01*
X26153475Y-201753368D01*
X25946632Y-201546525D01*
X25772240Y-201430000D01*
X25946632Y-201313475D01*
X26153475Y-201106632D01*
X26315990Y-200863411D01*
X26427932Y-200593158D01*
X26485000Y-200306260D01*
X26485000Y-200013740D01*
X26427932Y-199726842D01*
X26315990Y-199456589D01*
X26153475Y-199213368D01*
X25946632Y-199006525D01*
X25772240Y-198890000D01*
X25946632Y-198773475D01*
X26153475Y-198566632D01*
X26315990Y-198323411D01*
X26427932Y-198053158D01*
X26485000Y-197766260D01*
X26485000Y-197473740D01*
X26469947Y-197398061D01*
X32465000Y-197398061D01*
X32465000Y-197601939D01*
X32504774Y-197801898D01*
X32582795Y-197990256D01*
X32696063Y-198159774D01*
X32840226Y-198303937D01*
X33009744Y-198417205D01*
X33198102Y-198495226D01*
X33398061Y-198535000D01*
X33601939Y-198535000D01*
X33801898Y-198495226D01*
X33990256Y-198417205D01*
X34159774Y-198303937D01*
X34203711Y-198260000D01*
X57496440Y-198260000D01*
X57504774Y-198301898D01*
X57582795Y-198490256D01*
X57696063Y-198659774D01*
X57840226Y-198803937D01*
X58009744Y-198917205D01*
X58198102Y-198995226D01*
X58398061Y-199035000D01*
X58601939Y-199035000D01*
X58801898Y-198995226D01*
X58990256Y-198917205D01*
X59159774Y-198803937D01*
X59303937Y-198659774D01*
X59417205Y-198490256D01*
X59495226Y-198301898D01*
X59535000Y-198101939D01*
X59535000Y-197898061D01*
X59495226Y-197698102D01*
X59417205Y-197509744D01*
X59303937Y-197340226D01*
X59159774Y-197196063D01*
X58990256Y-197082795D01*
X58801898Y-197004774D01*
X58601939Y-196965000D01*
X58544105Y-196965000D01*
X58540001Y-196959999D01*
X58424276Y-196865026D01*
X58292247Y-196794454D01*
X58148986Y-196750997D01*
X58037333Y-196740000D01*
X58037322Y-196740000D01*
X58000000Y-196736324D01*
X57962678Y-196740000D01*
X34203711Y-196740000D01*
X34159774Y-196696063D01*
X33990256Y-196582795D01*
X33801898Y-196504774D01*
X33601939Y-196465000D01*
X33398061Y-196465000D01*
X33198102Y-196504774D01*
X33009744Y-196582795D01*
X32840226Y-196696063D01*
X32696063Y-196840226D01*
X32582795Y-197009744D01*
X32504774Y-197198102D01*
X32465000Y-197398061D01*
X26469947Y-197398061D01*
X26427932Y-197186842D01*
X26315990Y-196916589D01*
X26153475Y-196673368D01*
X25946632Y-196466525D01*
X25784305Y-196358061D01*
X188933000Y-196358061D01*
X188933000Y-196561939D01*
X188972774Y-196761898D01*
X189050795Y-196950256D01*
X189164063Y-197119774D01*
X189308226Y-197263937D01*
X189477744Y-197377205D01*
X189666102Y-197455226D01*
X189866061Y-197495000D01*
X190069939Y-197495000D01*
X190269898Y-197455226D01*
X190458256Y-197377205D01*
X190627774Y-197263937D01*
X190771937Y-197119774D01*
X190885205Y-196950256D01*
X190963226Y-196761898D01*
X191003000Y-196561939D01*
X191003000Y-196499801D01*
X191495004Y-196007798D01*
X191524001Y-195984001D01*
X191552727Y-195948998D01*
X191618974Y-195868277D01*
X191689546Y-195736247D01*
X191713869Y-195656063D01*
X191733003Y-195592986D01*
X191744000Y-195481333D01*
X191744000Y-195481323D01*
X191747676Y-195444000D01*
X191744000Y-195406678D01*
X191744000Y-167699711D01*
X191787937Y-167655774D01*
X191901205Y-167486256D01*
X191979226Y-167297898D01*
X192019000Y-167097939D01*
X192019000Y-166894061D01*
X191979226Y-166694102D01*
X191901205Y-166505744D01*
X191787937Y-166336226D01*
X191643774Y-166192063D01*
X191474256Y-166078795D01*
X191285898Y-166000774D01*
X191085939Y-165961000D01*
X190882061Y-165961000D01*
X190682102Y-166000774D01*
X190493744Y-166078795D01*
X190324226Y-166192063D01*
X190180063Y-166336226D01*
X190066795Y-166505744D01*
X189988774Y-166694102D01*
X189949000Y-166894061D01*
X189949000Y-167097939D01*
X189988774Y-167297898D01*
X190066795Y-167486256D01*
X190180063Y-167655774D01*
X190224001Y-167699712D01*
X190224000Y-195129198D01*
X189928199Y-195425000D01*
X189866061Y-195425000D01*
X189666102Y-195464774D01*
X189477744Y-195542795D01*
X189308226Y-195656063D01*
X189164063Y-195800226D01*
X189050795Y-195969744D01*
X188972774Y-196158102D01*
X188933000Y-196358061D01*
X25784305Y-196358061D01*
X25772240Y-196350000D01*
X25946632Y-196233475D01*
X26153475Y-196026632D01*
X26315990Y-195783411D01*
X26427932Y-195513158D01*
X26485000Y-195226260D01*
X26485000Y-194933740D01*
X26427932Y-194646842D01*
X26315990Y-194376589D01*
X26153475Y-194133368D01*
X25946632Y-193926525D01*
X25764466Y-193804805D01*
X25881355Y-193735178D01*
X26097588Y-193540269D01*
X26271641Y-193306920D01*
X26396825Y-193044099D01*
X26441476Y-192896890D01*
X26320155Y-192667000D01*
X25127000Y-192667000D01*
X25127000Y-192687000D01*
X24873000Y-192687000D01*
X24873000Y-192667000D01*
X23679845Y-192667000D01*
X23558524Y-192896890D01*
X23603175Y-193044099D01*
X23728359Y-193306920D01*
X23902412Y-193540269D01*
X24118645Y-193735178D01*
X24235534Y-193804805D01*
X24053368Y-193926525D01*
X23846525Y-194133368D01*
X23684010Y-194376589D01*
X23572068Y-194646842D01*
X23515000Y-194933740D01*
X6127000Y-194933740D01*
X6127000Y-190850000D01*
X23511928Y-190850000D01*
X23524188Y-190974482D01*
X23560498Y-191094180D01*
X23619463Y-191204494D01*
X23698815Y-191301185D01*
X23795506Y-191380537D01*
X23905820Y-191439502D01*
X23986466Y-191463966D01*
X23902412Y-191539731D01*
X23728359Y-191773080D01*
X23603175Y-192035901D01*
X23558524Y-192183110D01*
X23679845Y-192413000D01*
X24873000Y-192413000D01*
X24873000Y-190127000D01*
X25127000Y-190127000D01*
X25127000Y-192413000D01*
X26320155Y-192413000D01*
X26441476Y-192183110D01*
X26396825Y-192035901D01*
X26271641Y-191773080D01*
X26097588Y-191539731D01*
X26013534Y-191463966D01*
X26094180Y-191439502D01*
X26204494Y-191380537D01*
X26301185Y-191301185D01*
X26380537Y-191204494D01*
X26439502Y-191094180D01*
X26475812Y-190974482D01*
X26488072Y-190850000D01*
X26485000Y-190285750D01*
X26326250Y-190127000D01*
X25127000Y-190127000D01*
X24873000Y-190127000D01*
X23673750Y-190127000D01*
X23515000Y-190285750D01*
X23511928Y-190850000D01*
X6127000Y-190850000D01*
X6127000Y-189150000D01*
X23511928Y-189150000D01*
X23515000Y-189714250D01*
X23673750Y-189873000D01*
X24873000Y-189873000D01*
X24873000Y-188673750D01*
X25127000Y-188673750D01*
X25127000Y-189873000D01*
X26326250Y-189873000D01*
X26485000Y-189714250D01*
X26488072Y-189150000D01*
X26475812Y-189025518D01*
X26439502Y-188905820D01*
X26380537Y-188795506D01*
X26301185Y-188698815D01*
X26204494Y-188619463D01*
X26094180Y-188560498D01*
X25974482Y-188524188D01*
X25850000Y-188511928D01*
X25285750Y-188515000D01*
X25127000Y-188673750D01*
X24873000Y-188673750D01*
X24714250Y-188515000D01*
X24150000Y-188511928D01*
X24025518Y-188524188D01*
X23905820Y-188560498D01*
X23795506Y-188619463D01*
X23698815Y-188698815D01*
X23619463Y-188795506D01*
X23560498Y-188905820D01*
X23524188Y-189025518D01*
X23511928Y-189150000D01*
X6127000Y-189150000D01*
X6127000Y-108418061D01*
X38925000Y-108418061D01*
X38925000Y-108621939D01*
X38964774Y-108821898D01*
X39042795Y-109010256D01*
X39156063Y-109179774D01*
X39200001Y-109223712D01*
X39200000Y-177666289D01*
X39156063Y-177710226D01*
X39042795Y-177879744D01*
X38964774Y-178068102D01*
X38925000Y-178268061D01*
X38925000Y-178471939D01*
X38964774Y-178671898D01*
X39042795Y-178860256D01*
X39156063Y-179029774D01*
X39300226Y-179173937D01*
X39469744Y-179287205D01*
X39658102Y-179365226D01*
X39858061Y-179405000D01*
X40061939Y-179405000D01*
X40261898Y-179365226D01*
X40450256Y-179287205D01*
X40619774Y-179173937D01*
X40763937Y-179029774D01*
X40877205Y-178860256D01*
X40955226Y-178671898D01*
X40995000Y-178471939D01*
X40995000Y-178268061D01*
X40955226Y-178068102D01*
X40877205Y-177879744D01*
X40763937Y-177710226D01*
X40720000Y-177666289D01*
X40720000Y-124126061D01*
X57965000Y-124126061D01*
X57965000Y-124329939D01*
X58004774Y-124529898D01*
X58082795Y-124718256D01*
X58196063Y-124887774D01*
X58240001Y-124931712D01*
X58240000Y-154004289D01*
X58196063Y-154048226D01*
X58082795Y-154217744D01*
X58004774Y-154406102D01*
X57965000Y-154606061D01*
X57965000Y-154809939D01*
X58004774Y-155009898D01*
X58082795Y-155198256D01*
X58196063Y-155367774D01*
X58340226Y-155511937D01*
X58509744Y-155625205D01*
X58698102Y-155703226D01*
X58898061Y-155743000D01*
X59101939Y-155743000D01*
X59301898Y-155703226D01*
X59490256Y-155625205D01*
X59659774Y-155511937D01*
X59803937Y-155367774D01*
X59917205Y-155198256D01*
X59995226Y-155009898D01*
X60035000Y-154809939D01*
X60035000Y-154606061D01*
X59995226Y-154406102D01*
X59917205Y-154217744D01*
X59803937Y-154048226D01*
X59760000Y-154004289D01*
X59760000Y-124931711D01*
X59803937Y-124887774D01*
X59917205Y-124718256D01*
X59995226Y-124529898D01*
X60035000Y-124329939D01*
X60035000Y-124126061D01*
X59995226Y-123926102D01*
X59917205Y-123737744D01*
X59803937Y-123568226D01*
X59659774Y-123424063D01*
X59490256Y-123310795D01*
X59301898Y-123232774D01*
X59101939Y-123193000D01*
X58898061Y-123193000D01*
X58698102Y-123232774D01*
X58509744Y-123310795D01*
X58340226Y-123424063D01*
X58196063Y-123568226D01*
X58082795Y-123737744D01*
X58004774Y-123926102D01*
X57965000Y-124126061D01*
X40720000Y-124126061D01*
X40720000Y-116094061D01*
X188933000Y-116094061D01*
X188933000Y-116297939D01*
X188972774Y-116497898D01*
X189050795Y-116686256D01*
X189164063Y-116855774D01*
X189308226Y-116999937D01*
X189477744Y-117113205D01*
X189666102Y-117191226D01*
X189866061Y-117231000D01*
X190069939Y-117231000D01*
X190269898Y-117191226D01*
X190458256Y-117113205D01*
X190627774Y-116999937D01*
X190771937Y-116855774D01*
X190885205Y-116686256D01*
X190963226Y-116497898D01*
X191003000Y-116297939D01*
X191003000Y-116235801D01*
X191495004Y-115743798D01*
X191524001Y-115720001D01*
X191552727Y-115684998D01*
X191618974Y-115604277D01*
X191689546Y-115472247D01*
X191713869Y-115392063D01*
X191733003Y-115328986D01*
X191744000Y-115217333D01*
X191744000Y-115217323D01*
X191747676Y-115180000D01*
X191744000Y-115142678D01*
X191744000Y-85403711D01*
X191787937Y-85359774D01*
X191901205Y-85190256D01*
X191979226Y-85001898D01*
X192019000Y-84801939D01*
X192019000Y-84598061D01*
X191979226Y-84398102D01*
X191901205Y-84209744D01*
X191787937Y-84040226D01*
X191643774Y-83896063D01*
X191474256Y-83782795D01*
X191285898Y-83704774D01*
X191085939Y-83665000D01*
X190882061Y-83665000D01*
X190682102Y-83704774D01*
X190493744Y-83782795D01*
X190324226Y-83896063D01*
X190180063Y-84040226D01*
X190066795Y-84209744D01*
X189988774Y-84398102D01*
X189949000Y-84598061D01*
X189949000Y-84801939D01*
X189988774Y-85001898D01*
X190066795Y-85190256D01*
X190180063Y-85359774D01*
X190224001Y-85403712D01*
X190224000Y-88801332D01*
X190224001Y-88801342D01*
X190224000Y-106581332D01*
X190224001Y-106581342D01*
X190224000Y-114865198D01*
X189928199Y-115161000D01*
X189866061Y-115161000D01*
X189666102Y-115200774D01*
X189477744Y-115278795D01*
X189308226Y-115392063D01*
X189164063Y-115536226D01*
X189050795Y-115705744D01*
X188972774Y-115894102D01*
X188933000Y-116094061D01*
X40720000Y-116094061D01*
X40720000Y-109223711D01*
X40763937Y-109179774D01*
X40877205Y-109010256D01*
X40955226Y-108821898D01*
X40995000Y-108621939D01*
X40995000Y-108418061D01*
X40955226Y-108218102D01*
X40877205Y-108029744D01*
X40763937Y-107860226D01*
X40619774Y-107716063D01*
X40450256Y-107602795D01*
X40261898Y-107524774D01*
X40061939Y-107485000D01*
X39858061Y-107485000D01*
X39658102Y-107524774D01*
X39469744Y-107602795D01*
X39300226Y-107716063D01*
X39156063Y-107860226D01*
X39042795Y-108029744D01*
X38964774Y-108218102D01*
X38925000Y-108418061D01*
X6127000Y-108418061D01*
X6127000Y-85614061D01*
X44661000Y-85614061D01*
X44661000Y-85817939D01*
X44700774Y-86017898D01*
X44778795Y-86206256D01*
X44892063Y-86375774D01*
X45036226Y-86519937D01*
X45205744Y-86633205D01*
X45394102Y-86711226D01*
X45594061Y-86751000D01*
X45797939Y-86751000D01*
X45997898Y-86711226D01*
X46186256Y-86633205D01*
X46355774Y-86519937D01*
X46499937Y-86375774D01*
X46613205Y-86206256D01*
X46691226Y-86017898D01*
X46731000Y-85817939D01*
X46731000Y-85755801D01*
X51090802Y-81396000D01*
X55660289Y-81396000D01*
X55704226Y-81439937D01*
X55873744Y-81553205D01*
X56062102Y-81631226D01*
X56262061Y-81671000D01*
X56465939Y-81671000D01*
X56665898Y-81631226D01*
X56854256Y-81553205D01*
X57023774Y-81439937D01*
X57167937Y-81295774D01*
X57281205Y-81126256D01*
X57359226Y-80937898D01*
X57399000Y-80737939D01*
X57399000Y-80534061D01*
X57359226Y-80334102D01*
X57281205Y-80145744D01*
X57167937Y-79976226D01*
X57023774Y-79832063D01*
X56854256Y-79718795D01*
X56665898Y-79640774D01*
X56465939Y-79601000D01*
X56262061Y-79601000D01*
X56062102Y-79640774D01*
X55873744Y-79718795D01*
X55704226Y-79832063D01*
X55660289Y-79876000D01*
X50813323Y-79876000D01*
X50776000Y-79872324D01*
X50738677Y-79876000D01*
X50738667Y-79876000D01*
X50627014Y-79886997D01*
X50483753Y-79930454D01*
X50351723Y-80001026D01*
X50268083Y-80069668D01*
X50235999Y-80095999D01*
X50212201Y-80124997D01*
X45656199Y-84681000D01*
X45594061Y-84681000D01*
X45394102Y-84720774D01*
X45205744Y-84798795D01*
X45036226Y-84912063D01*
X44892063Y-85056226D01*
X44778795Y-85225744D01*
X44700774Y-85414102D01*
X44661000Y-85614061D01*
X6127000Y-85614061D01*
X6127000Y-54127000D01*
X205873000Y-54127000D01*
X205873000Y-223873000D01*
G37*
X205873000Y-223873000D02*
X6127000Y-223873000D01*
X6127000Y-194933740D01*
X23515000Y-194933740D01*
X23515000Y-195226260D01*
X23572068Y-195513158D01*
X23684010Y-195783411D01*
X23846525Y-196026632D01*
X24053368Y-196233475D01*
X24227760Y-196350000D01*
X24053368Y-196466525D01*
X23846525Y-196673368D01*
X23684010Y-196916589D01*
X23572068Y-197186842D01*
X23515000Y-197473740D01*
X23515000Y-197766260D01*
X23572068Y-198053158D01*
X23684010Y-198323411D01*
X23846525Y-198566632D01*
X24053368Y-198773475D01*
X24227760Y-198890000D01*
X24053368Y-199006525D01*
X23846525Y-199213368D01*
X23684010Y-199456589D01*
X23572068Y-199726842D01*
X23515000Y-200013740D01*
X23515000Y-200306260D01*
X23572068Y-200593158D01*
X23684010Y-200863411D01*
X23846525Y-201106632D01*
X24053368Y-201313475D01*
X24227760Y-201430000D01*
X24053368Y-201546525D01*
X23846525Y-201753368D01*
X23684010Y-201996589D01*
X23572068Y-202266842D01*
X23515000Y-202553740D01*
X23515000Y-202846260D01*
X23572068Y-203133158D01*
X23684010Y-203403411D01*
X23846525Y-203646632D01*
X24053368Y-203853475D01*
X24296589Y-204015990D01*
X24566842Y-204127932D01*
X24853740Y-204185000D01*
X25146260Y-204185000D01*
X25433158Y-204127932D01*
X25703411Y-204015990D01*
X25946632Y-203853475D01*
X26153475Y-203646632D01*
X26315990Y-203403411D01*
X26427932Y-203133158D01*
X26485000Y-202846260D01*
X26485000Y-202553740D01*
X26427932Y-202266842D01*
X26315990Y-201996589D01*
X26153475Y-201753368D01*
X25946632Y-201546525D01*
X25772240Y-201430000D01*
X25946632Y-201313475D01*
X26153475Y-201106632D01*
X26315990Y-200863411D01*
X26427932Y-200593158D01*
X26485000Y-200306260D01*
X26485000Y-200013740D01*
X26427932Y-199726842D01*
X26315990Y-199456589D01*
X26153475Y-199213368D01*
X25946632Y-199006525D01*
X25772240Y-198890000D01*
X25946632Y-198773475D01*
X26153475Y-198566632D01*
X26315990Y-198323411D01*
X26427932Y-198053158D01*
X26485000Y-197766260D01*
X26485000Y-197473740D01*
X26469947Y-197398061D01*
X32465000Y-197398061D01*
X32465000Y-197601939D01*
X32504774Y-197801898D01*
X32582795Y-197990256D01*
X32696063Y-198159774D01*
X32840226Y-198303937D01*
X33009744Y-198417205D01*
X33198102Y-198495226D01*
X33398061Y-198535000D01*
X33601939Y-198535000D01*
X33801898Y-198495226D01*
X33990256Y-198417205D01*
X34159774Y-198303937D01*
X34203711Y-198260000D01*
X57496440Y-198260000D01*
X57504774Y-198301898D01*
X57582795Y-198490256D01*
X57696063Y-198659774D01*
X57840226Y-198803937D01*
X58009744Y-198917205D01*
X58198102Y-198995226D01*
X58398061Y-199035000D01*
X58601939Y-199035000D01*
X58801898Y-198995226D01*
X58990256Y-198917205D01*
X59159774Y-198803937D01*
X59303937Y-198659774D01*
X59417205Y-198490256D01*
X59495226Y-198301898D01*
X59535000Y-198101939D01*
X59535000Y-197898061D01*
X59495226Y-197698102D01*
X59417205Y-197509744D01*
X59303937Y-197340226D01*
X59159774Y-197196063D01*
X58990256Y-197082795D01*
X58801898Y-197004774D01*
X58601939Y-196965000D01*
X58544105Y-196965000D01*
X58540001Y-196959999D01*
X58424276Y-196865026D01*
X58292247Y-196794454D01*
X58148986Y-196750997D01*
X58037333Y-196740000D01*
X58037322Y-196740000D01*
X58000000Y-196736324D01*
X57962678Y-196740000D01*
X34203711Y-196740000D01*
X34159774Y-196696063D01*
X33990256Y-196582795D01*
X33801898Y-196504774D01*
X33601939Y-196465000D01*
X33398061Y-196465000D01*
X33198102Y-196504774D01*
X33009744Y-196582795D01*
X32840226Y-196696063D01*
X32696063Y-196840226D01*
X32582795Y-197009744D01*
X32504774Y-197198102D01*
X32465000Y-197398061D01*
X26469947Y-197398061D01*
X26427932Y-197186842D01*
X26315990Y-196916589D01*
X26153475Y-196673368D01*
X25946632Y-196466525D01*
X25784305Y-196358061D01*
X188933000Y-196358061D01*
X188933000Y-196561939D01*
X188972774Y-196761898D01*
X189050795Y-196950256D01*
X189164063Y-197119774D01*
X189308226Y-197263937D01*
X189477744Y-197377205D01*
X189666102Y-197455226D01*
X189866061Y-197495000D01*
X190069939Y-197495000D01*
X190269898Y-197455226D01*
X190458256Y-197377205D01*
X190627774Y-197263937D01*
X190771937Y-197119774D01*
X190885205Y-196950256D01*
X190963226Y-196761898D01*
X191003000Y-196561939D01*
X191003000Y-196499801D01*
X191495004Y-196007798D01*
X191524001Y-195984001D01*
X191552727Y-195948998D01*
X191618974Y-195868277D01*
X191689546Y-195736247D01*
X191713869Y-195656063D01*
X191733003Y-195592986D01*
X191744000Y-195481333D01*
X191744000Y-195481323D01*
X191747676Y-195444000D01*
X191744000Y-195406678D01*
X191744000Y-167699711D01*
X191787937Y-167655774D01*
X191901205Y-167486256D01*
X191979226Y-167297898D01*
X192019000Y-167097939D01*
X192019000Y-166894061D01*
X191979226Y-166694102D01*
X191901205Y-166505744D01*
X191787937Y-166336226D01*
X191643774Y-166192063D01*
X191474256Y-166078795D01*
X191285898Y-166000774D01*
X191085939Y-165961000D01*
X190882061Y-165961000D01*
X190682102Y-166000774D01*
X190493744Y-166078795D01*
X190324226Y-166192063D01*
X190180063Y-166336226D01*
X190066795Y-166505744D01*
X189988774Y-166694102D01*
X189949000Y-166894061D01*
X189949000Y-167097939D01*
X189988774Y-167297898D01*
X190066795Y-167486256D01*
X190180063Y-167655774D01*
X190224001Y-167699712D01*
X190224000Y-195129198D01*
X189928199Y-195425000D01*
X189866061Y-195425000D01*
X189666102Y-195464774D01*
X189477744Y-195542795D01*
X189308226Y-195656063D01*
X189164063Y-195800226D01*
X189050795Y-195969744D01*
X188972774Y-196158102D01*
X188933000Y-196358061D01*
X25784305Y-196358061D01*
X25772240Y-196350000D01*
X25946632Y-196233475D01*
X26153475Y-196026632D01*
X26315990Y-195783411D01*
X26427932Y-195513158D01*
X26485000Y-195226260D01*
X26485000Y-194933740D01*
X26427932Y-194646842D01*
X26315990Y-194376589D01*
X26153475Y-194133368D01*
X25946632Y-193926525D01*
X25764466Y-193804805D01*
X25881355Y-193735178D01*
X26097588Y-193540269D01*
X26271641Y-193306920D01*
X26396825Y-193044099D01*
X26441476Y-192896890D01*
X26320155Y-192667000D01*
X25127000Y-192667000D01*
X25127000Y-192687000D01*
X24873000Y-192687000D01*
X24873000Y-192667000D01*
X23679845Y-192667000D01*
X23558524Y-192896890D01*
X23603175Y-193044099D01*
X23728359Y-193306920D01*
X23902412Y-193540269D01*
X24118645Y-193735178D01*
X24235534Y-193804805D01*
X24053368Y-193926525D01*
X23846525Y-194133368D01*
X23684010Y-194376589D01*
X23572068Y-194646842D01*
X23515000Y-194933740D01*
X6127000Y-194933740D01*
X6127000Y-190850000D01*
X23511928Y-190850000D01*
X23524188Y-190974482D01*
X23560498Y-191094180D01*
X23619463Y-191204494D01*
X23698815Y-191301185D01*
X23795506Y-191380537D01*
X23905820Y-191439502D01*
X23986466Y-191463966D01*
X23902412Y-191539731D01*
X23728359Y-191773080D01*
X23603175Y-192035901D01*
X23558524Y-192183110D01*
X23679845Y-192413000D01*
X24873000Y-192413000D01*
X24873000Y-190127000D01*
X25127000Y-190127000D01*
X25127000Y-192413000D01*
X26320155Y-192413000D01*
X26441476Y-192183110D01*
X26396825Y-192035901D01*
X26271641Y-191773080D01*
X26097588Y-191539731D01*
X26013534Y-191463966D01*
X26094180Y-191439502D01*
X26204494Y-191380537D01*
X26301185Y-191301185D01*
X26380537Y-191204494D01*
X26439502Y-191094180D01*
X26475812Y-190974482D01*
X26488072Y-190850000D01*
X26485000Y-190285750D01*
X26326250Y-190127000D01*
X25127000Y-190127000D01*
X24873000Y-190127000D01*
X23673750Y-190127000D01*
X23515000Y-190285750D01*
X23511928Y-190850000D01*
X6127000Y-190850000D01*
X6127000Y-189150000D01*
X23511928Y-189150000D01*
X23515000Y-189714250D01*
X23673750Y-189873000D01*
X24873000Y-189873000D01*
X24873000Y-188673750D01*
X25127000Y-188673750D01*
X25127000Y-189873000D01*
X26326250Y-189873000D01*
X26485000Y-189714250D01*
X26488072Y-189150000D01*
X26475812Y-189025518D01*
X26439502Y-188905820D01*
X26380537Y-188795506D01*
X26301185Y-188698815D01*
X26204494Y-188619463D01*
X26094180Y-188560498D01*
X25974482Y-188524188D01*
X25850000Y-188511928D01*
X25285750Y-188515000D01*
X25127000Y-188673750D01*
X24873000Y-188673750D01*
X24714250Y-188515000D01*
X24150000Y-188511928D01*
X24025518Y-188524188D01*
X23905820Y-188560498D01*
X23795506Y-188619463D01*
X23698815Y-188698815D01*
X23619463Y-188795506D01*
X23560498Y-188905820D01*
X23524188Y-189025518D01*
X23511928Y-189150000D01*
X6127000Y-189150000D01*
X6127000Y-108418061D01*
X38925000Y-108418061D01*
X38925000Y-108621939D01*
X38964774Y-108821898D01*
X39042795Y-109010256D01*
X39156063Y-109179774D01*
X39200001Y-109223712D01*
X39200000Y-177666289D01*
X39156063Y-177710226D01*
X39042795Y-177879744D01*
X38964774Y-178068102D01*
X38925000Y-178268061D01*
X38925000Y-178471939D01*
X38964774Y-178671898D01*
X39042795Y-178860256D01*
X39156063Y-179029774D01*
X39300226Y-179173937D01*
X39469744Y-179287205D01*
X39658102Y-179365226D01*
X39858061Y-179405000D01*
X40061939Y-179405000D01*
X40261898Y-179365226D01*
X40450256Y-179287205D01*
X40619774Y-179173937D01*
X40763937Y-179029774D01*
X40877205Y-178860256D01*
X40955226Y-178671898D01*
X40995000Y-178471939D01*
X40995000Y-178268061D01*
X40955226Y-178068102D01*
X40877205Y-177879744D01*
X40763937Y-177710226D01*
X40720000Y-177666289D01*
X40720000Y-124126061D01*
X57965000Y-124126061D01*
X57965000Y-124329939D01*
X58004774Y-124529898D01*
X58082795Y-124718256D01*
X58196063Y-124887774D01*
X58240001Y-124931712D01*
X58240000Y-154004289D01*
X58196063Y-154048226D01*
X58082795Y-154217744D01*
X58004774Y-154406102D01*
X57965000Y-154606061D01*
X57965000Y-154809939D01*
X58004774Y-155009898D01*
X58082795Y-155198256D01*
X58196063Y-155367774D01*
X58340226Y-155511937D01*
X58509744Y-155625205D01*
X58698102Y-155703226D01*
X58898061Y-155743000D01*
X59101939Y-155743000D01*
X59301898Y-155703226D01*
X59490256Y-155625205D01*
X59659774Y-155511937D01*
X59803937Y-155367774D01*
X59917205Y-155198256D01*
X59995226Y-155009898D01*
X60035000Y-154809939D01*
X60035000Y-154606061D01*
X59995226Y-154406102D01*
X59917205Y-154217744D01*
X59803937Y-154048226D01*
X59760000Y-154004289D01*
X59760000Y-124931711D01*
X59803937Y-124887774D01*
X59917205Y-124718256D01*
X59995226Y-124529898D01*
X60035000Y-124329939D01*
X60035000Y-124126061D01*
X59995226Y-123926102D01*
X59917205Y-123737744D01*
X59803937Y-123568226D01*
X59659774Y-123424063D01*
X59490256Y-123310795D01*
X59301898Y-123232774D01*
X59101939Y-123193000D01*
X58898061Y-123193000D01*
X58698102Y-123232774D01*
X58509744Y-123310795D01*
X58340226Y-123424063D01*
X58196063Y-123568226D01*
X58082795Y-123737744D01*
X58004774Y-123926102D01*
X57965000Y-124126061D01*
X40720000Y-124126061D01*
X40720000Y-116094061D01*
X188933000Y-116094061D01*
X188933000Y-116297939D01*
X188972774Y-116497898D01*
X189050795Y-116686256D01*
X189164063Y-116855774D01*
X189308226Y-116999937D01*
X189477744Y-117113205D01*
X189666102Y-117191226D01*
X189866061Y-117231000D01*
X190069939Y-117231000D01*
X190269898Y-117191226D01*
X190458256Y-117113205D01*
X190627774Y-116999937D01*
X190771937Y-116855774D01*
X190885205Y-116686256D01*
X190963226Y-116497898D01*
X191003000Y-116297939D01*
X191003000Y-116235801D01*
X191495004Y-115743798D01*
X191524001Y-115720001D01*
X191552727Y-115684998D01*
X191618974Y-115604277D01*
X191689546Y-115472247D01*
X191713869Y-115392063D01*
X191733003Y-115328986D01*
X191744000Y-115217333D01*
X191744000Y-115217323D01*
X191747676Y-115180000D01*
X191744000Y-115142678D01*
X191744000Y-85403711D01*
X191787937Y-85359774D01*
X191901205Y-85190256D01*
X191979226Y-85001898D01*
X192019000Y-84801939D01*
X192019000Y-84598061D01*
X191979226Y-84398102D01*
X191901205Y-84209744D01*
X191787937Y-84040226D01*
X191643774Y-83896063D01*
X191474256Y-83782795D01*
X191285898Y-83704774D01*
X191085939Y-83665000D01*
X190882061Y-83665000D01*
X190682102Y-83704774D01*
X190493744Y-83782795D01*
X190324226Y-83896063D01*
X190180063Y-84040226D01*
X190066795Y-84209744D01*
X189988774Y-84398102D01*
X189949000Y-84598061D01*
X189949000Y-84801939D01*
X189988774Y-85001898D01*
X190066795Y-85190256D01*
X190180063Y-85359774D01*
X190224001Y-85403712D01*
X190224000Y-88801332D01*
X190224001Y-88801342D01*
X190224000Y-106581332D01*
X190224001Y-106581342D01*
X190224000Y-114865198D01*
X189928199Y-115161000D01*
X189866061Y-115161000D01*
X189666102Y-115200774D01*
X189477744Y-115278795D01*
X189308226Y-115392063D01*
X189164063Y-115536226D01*
X189050795Y-115705744D01*
X188972774Y-115894102D01*
X188933000Y-116094061D01*
X40720000Y-116094061D01*
X40720000Y-109223711D01*
X40763937Y-109179774D01*
X40877205Y-109010256D01*
X40955226Y-108821898D01*
X40995000Y-108621939D01*
X40995000Y-108418061D01*
X40955226Y-108218102D01*
X40877205Y-108029744D01*
X40763937Y-107860226D01*
X40619774Y-107716063D01*
X40450256Y-107602795D01*
X40261898Y-107524774D01*
X40061939Y-107485000D01*
X39858061Y-107485000D01*
X39658102Y-107524774D01*
X39469744Y-107602795D01*
X39300226Y-107716063D01*
X39156063Y-107860226D01*
X39042795Y-108029744D01*
X38964774Y-108218102D01*
X38925000Y-108418061D01*
X6127000Y-108418061D01*
X6127000Y-85614061D01*
X44661000Y-85614061D01*
X44661000Y-85817939D01*
X44700774Y-86017898D01*
X44778795Y-86206256D01*
X44892063Y-86375774D01*
X45036226Y-86519937D01*
X45205744Y-86633205D01*
X45394102Y-86711226D01*
X45594061Y-86751000D01*
X45797939Y-86751000D01*
X45997898Y-86711226D01*
X46186256Y-86633205D01*
X46355774Y-86519937D01*
X46499937Y-86375774D01*
X46613205Y-86206256D01*
X46691226Y-86017898D01*
X46731000Y-85817939D01*
X46731000Y-85755801D01*
X51090802Y-81396000D01*
X55660289Y-81396000D01*
X55704226Y-81439937D01*
X55873744Y-81553205D01*
X56062102Y-81631226D01*
X56262061Y-81671000D01*
X56465939Y-81671000D01*
X56665898Y-81631226D01*
X56854256Y-81553205D01*
X57023774Y-81439937D01*
X57167937Y-81295774D01*
X57281205Y-81126256D01*
X57359226Y-80937898D01*
X57399000Y-80737939D01*
X57399000Y-80534061D01*
X57359226Y-80334102D01*
X57281205Y-80145744D01*
X57167937Y-79976226D01*
X57023774Y-79832063D01*
X56854256Y-79718795D01*
X56665898Y-79640774D01*
X56465939Y-79601000D01*
X56262061Y-79601000D01*
X56062102Y-79640774D01*
X55873744Y-79718795D01*
X55704226Y-79832063D01*
X55660289Y-79876000D01*
X50813323Y-79876000D01*
X50776000Y-79872324D01*
X50738677Y-79876000D01*
X50738667Y-79876000D01*
X50627014Y-79886997D01*
X50483753Y-79930454D01*
X50351723Y-80001026D01*
X50268083Y-80069668D01*
X50235999Y-80095999D01*
X50212201Y-80124997D01*
X45656199Y-84681000D01*
X45594061Y-84681000D01*
X45394102Y-84720774D01*
X45205744Y-84798795D01*
X45036226Y-84912063D01*
X44892063Y-85056226D01*
X44778795Y-85225744D01*
X44700774Y-85414102D01*
X44661000Y-85614061D01*
X6127000Y-85614061D01*
X6127000Y-54127000D01*
X205873000Y-54127000D01*
X205873000Y-223873000D01*
M02*
