G04 #@! TF.GenerationSoftware,KiCad,Pcbnew,(5.1.5)-3*
G04 #@! TF.CreationDate,2021-10-07T01:12:50-04:00*
G04 #@! TF.ProjectId,RIGHT_Side Panel,52494748-545f-4536-9964-652050616e65,rev?*
G04 #@! TF.SameCoordinates,Original*
G04 #@! TF.FileFunction,Legend,Top*
G04 #@! TF.FilePolarity,Positive*
%FSLAX46Y46*%
G04 Gerber Fmt 4.6, Leading zero omitted, Abs format (unit mm)*
G04 Created by KiCad (PCBNEW (5.1.5)-3) date 2021-10-07 01:12:50*
%MOMM*%
%LPD*%
G04 APERTURE LIST*
%ADD10C,0.200000*%
%ADD11C,0.120000*%
%ADD12C,0.150000*%
G04 APERTURE END LIST*
D10*
X21117619Y-189123809D02*
X20355714Y-189123809D01*
X20279523Y-189885714D01*
X20355714Y-189809523D01*
X20508095Y-189733333D01*
X20889047Y-189733333D01*
X21041428Y-189809523D01*
X21117619Y-189885714D01*
X21193809Y-190038095D01*
X21193809Y-190419047D01*
X21117619Y-190571428D01*
X21041428Y-190647619D01*
X20889047Y-190723809D01*
X20508095Y-190723809D01*
X20355714Y-190647619D01*
X20279523Y-190571428D01*
X21650952Y-189123809D02*
X22184285Y-190723809D01*
X22717619Y-189123809D01*
X21117619Y-191723809D02*
X20355714Y-191723809D01*
X20279523Y-192485714D01*
X20355714Y-192409523D01*
X20508095Y-192333333D01*
X20889047Y-192333333D01*
X21041428Y-192409523D01*
X21117619Y-192485714D01*
X21193809Y-192638095D01*
X21193809Y-193019047D01*
X21117619Y-193171428D01*
X21041428Y-193247619D01*
X20889047Y-193323809D01*
X20508095Y-193323809D01*
X20355714Y-193247619D01*
X20279523Y-193171428D01*
X21650952Y-191723809D02*
X22184285Y-193323809D01*
X22717619Y-191723809D01*
X12584285Y-195923809D02*
X12584285Y-194323809D01*
X12965238Y-194323809D01*
X13193809Y-194400000D01*
X13346190Y-194552380D01*
X13422380Y-194704761D01*
X13498571Y-195009523D01*
X13498571Y-195238095D01*
X13422380Y-195542857D01*
X13346190Y-195695238D01*
X13193809Y-195847619D01*
X12965238Y-195923809D01*
X12584285Y-195923809D01*
X14870000Y-195923809D02*
X14870000Y-195085714D01*
X14793809Y-194933333D01*
X14641428Y-194857142D01*
X14336666Y-194857142D01*
X14184285Y-194933333D01*
X14870000Y-195847619D02*
X14717619Y-195923809D01*
X14336666Y-195923809D01*
X14184285Y-195847619D01*
X14108095Y-195695238D01*
X14108095Y-195542857D01*
X14184285Y-195390476D01*
X14336666Y-195314285D01*
X14717619Y-195314285D01*
X14870000Y-195238095D01*
X15403333Y-194857142D02*
X16012857Y-194857142D01*
X15631904Y-194323809D02*
X15631904Y-195695238D01*
X15708095Y-195847619D01*
X15860476Y-195923809D01*
X16012857Y-195923809D01*
X17231904Y-195923809D02*
X17231904Y-195085714D01*
X17155714Y-194933333D01*
X17003333Y-194857142D01*
X16698571Y-194857142D01*
X16546190Y-194933333D01*
X17231904Y-195847619D02*
X17079523Y-195923809D01*
X16698571Y-195923809D01*
X16546190Y-195847619D01*
X16470000Y-195695238D01*
X16470000Y-195542857D01*
X16546190Y-195390476D01*
X16698571Y-195314285D01*
X17079523Y-195314285D01*
X17231904Y-195238095D01*
X19517619Y-194323809D02*
X19822380Y-194323809D01*
X19974761Y-194400000D01*
X20127142Y-194552380D01*
X20203333Y-194857142D01*
X20203333Y-195390476D01*
X20127142Y-195695238D01*
X19974761Y-195847619D01*
X19822380Y-195923809D01*
X19517619Y-195923809D01*
X19365238Y-195847619D01*
X19212857Y-195695238D01*
X19136666Y-195390476D01*
X19136666Y-194857142D01*
X19212857Y-194552380D01*
X19365238Y-194400000D01*
X19517619Y-194323809D01*
X21574761Y-194857142D02*
X21574761Y-195923809D01*
X20889047Y-194857142D02*
X20889047Y-195695238D01*
X20965238Y-195847619D01*
X21117619Y-195923809D01*
X21346190Y-195923809D01*
X21498571Y-195847619D01*
X21574761Y-195771428D01*
X22108095Y-194857142D02*
X22717619Y-194857142D01*
X22336666Y-194323809D02*
X22336666Y-195695238D01*
X22412857Y-195847619D01*
X22565238Y-195923809D01*
X22717619Y-195923809D01*
X14412857Y-198523809D02*
X14412857Y-196923809D01*
X14793809Y-196923809D01*
X15022380Y-197000000D01*
X15174761Y-197152380D01*
X15250952Y-197304761D01*
X15327142Y-197609523D01*
X15327142Y-197838095D01*
X15250952Y-198142857D01*
X15174761Y-198295238D01*
X15022380Y-198447619D01*
X14793809Y-198523809D01*
X14412857Y-198523809D01*
X16698571Y-198523809D02*
X16698571Y-197685714D01*
X16622380Y-197533333D01*
X16470000Y-197457142D01*
X16165238Y-197457142D01*
X16012857Y-197533333D01*
X16698571Y-198447619D02*
X16546190Y-198523809D01*
X16165238Y-198523809D01*
X16012857Y-198447619D01*
X15936666Y-198295238D01*
X15936666Y-198142857D01*
X16012857Y-197990476D01*
X16165238Y-197914285D01*
X16546190Y-197914285D01*
X16698571Y-197838095D01*
X17231904Y-197457142D02*
X17841428Y-197457142D01*
X17460476Y-196923809D02*
X17460476Y-198295238D01*
X17536666Y-198447619D01*
X17689047Y-198523809D01*
X17841428Y-198523809D01*
X19060476Y-198523809D02*
X19060476Y-197685714D01*
X18984285Y-197533333D01*
X18831904Y-197457142D01*
X18527142Y-197457142D01*
X18374761Y-197533333D01*
X19060476Y-198447619D02*
X18908095Y-198523809D01*
X18527142Y-198523809D01*
X18374761Y-198447619D01*
X18298571Y-198295238D01*
X18298571Y-198142857D01*
X18374761Y-197990476D01*
X18527142Y-197914285D01*
X18908095Y-197914285D01*
X19060476Y-197838095D01*
X21041428Y-198523809D02*
X21041428Y-196923809D01*
X21803333Y-197457142D02*
X21803333Y-198523809D01*
X21803333Y-197609523D02*
X21879523Y-197533333D01*
X22031904Y-197457142D01*
X22260476Y-197457142D01*
X22412857Y-197533333D01*
X22489047Y-197685714D01*
X22489047Y-198523809D01*
X19593809Y-199600000D02*
X19441428Y-199523809D01*
X19212857Y-199523809D01*
X18984285Y-199600000D01*
X18831904Y-199752380D01*
X18755714Y-199904761D01*
X18679523Y-200209523D01*
X18679523Y-200438095D01*
X18755714Y-200742857D01*
X18831904Y-200895238D01*
X18984285Y-201047619D01*
X19212857Y-201123809D01*
X19365238Y-201123809D01*
X19593809Y-201047619D01*
X19670000Y-200971428D01*
X19670000Y-200438095D01*
X19365238Y-200438095D01*
X20355714Y-200057142D02*
X20355714Y-201123809D01*
X20355714Y-200209523D02*
X20431904Y-200133333D01*
X20584285Y-200057142D01*
X20812857Y-200057142D01*
X20965238Y-200133333D01*
X21041428Y-200285714D01*
X21041428Y-201123809D01*
X22489047Y-201123809D02*
X22489047Y-199523809D01*
X22489047Y-201047619D02*
X22336666Y-201123809D01*
X22031904Y-201123809D01*
X21879523Y-201047619D01*
X21803333Y-200971428D01*
X21727142Y-200819047D01*
X21727142Y-200361904D01*
X21803333Y-200209523D01*
X21879523Y-200133333D01*
X22031904Y-200057142D01*
X22336666Y-200057142D01*
X22489047Y-200133333D01*
X19593809Y-202200000D02*
X19441428Y-202123809D01*
X19212857Y-202123809D01*
X18984285Y-202200000D01*
X18831904Y-202352380D01*
X18755714Y-202504761D01*
X18679523Y-202809523D01*
X18679523Y-203038095D01*
X18755714Y-203342857D01*
X18831904Y-203495238D01*
X18984285Y-203647619D01*
X19212857Y-203723809D01*
X19365238Y-203723809D01*
X19593809Y-203647619D01*
X19670000Y-203571428D01*
X19670000Y-203038095D01*
X19365238Y-203038095D01*
X20355714Y-202657142D02*
X20355714Y-203723809D01*
X20355714Y-202809523D02*
X20431904Y-202733333D01*
X20584285Y-202657142D01*
X20812857Y-202657142D01*
X20965238Y-202733333D01*
X21041428Y-202885714D01*
X21041428Y-203723809D01*
X22489047Y-203723809D02*
X22489047Y-202123809D01*
X22489047Y-203647619D02*
X22336666Y-203723809D01*
X22031904Y-203723809D01*
X21879523Y-203647619D01*
X21803333Y-203571428D01*
X21727142Y-203419047D01*
X21727142Y-202961904D01*
X21803333Y-202809523D01*
X21879523Y-202733333D01*
X22031904Y-202657142D01*
X22336666Y-202657142D01*
X22489047Y-202733333D01*
D11*
X23670000Y-188670000D02*
X25000000Y-188670000D01*
X23670000Y-190000000D02*
X23670000Y-188670000D01*
X23670000Y-191270000D02*
X26330000Y-191270000D01*
X26330000Y-191270000D02*
X26330000Y-204030000D01*
X23670000Y-191270000D02*
X23670000Y-204030000D01*
X23670000Y-204030000D02*
X26330000Y-204030000D01*
X68650000Y-81750000D02*
X68650000Y-80600000D01*
X61350000Y-81750000D02*
X68650000Y-81750000D01*
X61350000Y-76250000D02*
X68650000Y-76250000D01*
X108650000Y-81750000D02*
X108650000Y-80600000D01*
X101350000Y-81750000D02*
X108650000Y-81750000D01*
X101350000Y-76250000D02*
X108650000Y-76250000D01*
X148650000Y-81750000D02*
X148650000Y-80600000D01*
X141350000Y-81750000D02*
X148650000Y-81750000D01*
X141350000Y-76250000D02*
X148650000Y-76250000D01*
X188650000Y-81750000D02*
X188650000Y-80600000D01*
X181350000Y-81750000D02*
X188650000Y-81750000D01*
X181350000Y-76250000D02*
X188650000Y-76250000D01*
X181350000Y-116250000D02*
X181350000Y-117400000D01*
X188650000Y-116250000D02*
X181350000Y-116250000D01*
X188650000Y-121750000D02*
X181350000Y-121750000D01*
X141350000Y-116250000D02*
X141350000Y-117400000D01*
X148650000Y-116250000D02*
X141350000Y-116250000D01*
X148650000Y-121750000D02*
X141350000Y-121750000D01*
X101350000Y-116250000D02*
X101350000Y-117400000D01*
X108650000Y-116250000D02*
X101350000Y-116250000D01*
X108650000Y-121750000D02*
X101350000Y-121750000D01*
X68650000Y-121750000D02*
X61350000Y-121750000D01*
X68650000Y-116250000D02*
X61350000Y-116250000D01*
X61350000Y-116250000D02*
X61350000Y-117400000D01*
X61350000Y-156250000D02*
X68650000Y-156250000D01*
X61350000Y-161750000D02*
X68650000Y-161750000D01*
X68650000Y-161750000D02*
X68650000Y-160600000D01*
X101350000Y-156250000D02*
X108650000Y-156250000D01*
X101350000Y-161750000D02*
X108650000Y-161750000D01*
X108650000Y-161750000D02*
X108650000Y-160600000D01*
X148650000Y-161750000D02*
X148650000Y-160600000D01*
X141350000Y-161750000D02*
X148650000Y-161750000D01*
X141350000Y-156250000D02*
X148650000Y-156250000D01*
X188650000Y-161750000D02*
X188650000Y-160600000D01*
X181350000Y-161750000D02*
X188650000Y-161750000D01*
X181350000Y-156250000D02*
X188650000Y-156250000D01*
X181350000Y-196250000D02*
X181350000Y-197400000D01*
X188650000Y-196250000D02*
X181350000Y-196250000D01*
X188650000Y-201750000D02*
X181350000Y-201750000D01*
X141350000Y-196250000D02*
X141350000Y-197400000D01*
X148650000Y-196250000D02*
X141350000Y-196250000D01*
X148650000Y-201750000D02*
X141350000Y-201750000D01*
X101350000Y-196250000D02*
X101350000Y-197400000D01*
X108650000Y-196250000D02*
X101350000Y-196250000D01*
X108650000Y-201750000D02*
X101350000Y-201750000D01*
X61350000Y-196250000D02*
X61350000Y-197400000D01*
X68650000Y-196250000D02*
X61350000Y-196250000D01*
X68650000Y-201750000D02*
X61350000Y-201750000D01*
D12*
X24666666Y-187122380D02*
X24666666Y-187836666D01*
X24619047Y-187979523D01*
X24523809Y-188074761D01*
X24380952Y-188122380D01*
X24285714Y-188122380D01*
X25666666Y-188122380D02*
X25095238Y-188122380D01*
X25380952Y-188122380D02*
X25380952Y-187122380D01*
X25285714Y-187265238D01*
X25190476Y-187360476D01*
X25095238Y-187408095D01*
X63785714Y-75952380D02*
X63785714Y-74952380D01*
X64023809Y-74952380D01*
X64166666Y-75000000D01*
X64261904Y-75095238D01*
X64309523Y-75190476D01*
X64357142Y-75380952D01*
X64357142Y-75523809D01*
X64309523Y-75714285D01*
X64261904Y-75809523D01*
X64166666Y-75904761D01*
X64023809Y-75952380D01*
X63785714Y-75952380D01*
X65309523Y-75952380D02*
X64738095Y-75952380D01*
X65023809Y-75952380D02*
X65023809Y-74952380D01*
X64928571Y-75095238D01*
X64833333Y-75190476D01*
X64738095Y-75238095D01*
X66166666Y-74952380D02*
X65976190Y-74952380D01*
X65880952Y-75000000D01*
X65833333Y-75047619D01*
X65738095Y-75190476D01*
X65690476Y-75380952D01*
X65690476Y-75761904D01*
X65738095Y-75857142D01*
X65785714Y-75904761D01*
X65880952Y-75952380D01*
X66071428Y-75952380D01*
X66166666Y-75904761D01*
X66214285Y-75857142D01*
X66261904Y-75761904D01*
X66261904Y-75523809D01*
X66214285Y-75428571D01*
X66166666Y-75380952D01*
X66071428Y-75333333D01*
X65880952Y-75333333D01*
X65785714Y-75380952D01*
X65738095Y-75428571D01*
X65690476Y-75523809D01*
X61135714Y-77852380D02*
X60564285Y-77852380D01*
X60850000Y-77852380D02*
X60850000Y-76852380D01*
X60754761Y-76995238D01*
X60659523Y-77090476D01*
X60564285Y-77138095D01*
X103785714Y-75952380D02*
X103785714Y-74952380D01*
X104023809Y-74952380D01*
X104166666Y-75000000D01*
X104261904Y-75095238D01*
X104309523Y-75190476D01*
X104357142Y-75380952D01*
X104357142Y-75523809D01*
X104309523Y-75714285D01*
X104261904Y-75809523D01*
X104166666Y-75904761D01*
X104023809Y-75952380D01*
X103785714Y-75952380D01*
X105309523Y-75952380D02*
X104738095Y-75952380D01*
X105023809Y-75952380D02*
X105023809Y-74952380D01*
X104928571Y-75095238D01*
X104833333Y-75190476D01*
X104738095Y-75238095D01*
X106214285Y-74952380D02*
X105738095Y-74952380D01*
X105690476Y-75428571D01*
X105738095Y-75380952D01*
X105833333Y-75333333D01*
X106071428Y-75333333D01*
X106166666Y-75380952D01*
X106214285Y-75428571D01*
X106261904Y-75523809D01*
X106261904Y-75761904D01*
X106214285Y-75857142D01*
X106166666Y-75904761D01*
X106071428Y-75952380D01*
X105833333Y-75952380D01*
X105738095Y-75904761D01*
X105690476Y-75857142D01*
X101135714Y-77852380D02*
X100564285Y-77852380D01*
X100850000Y-77852380D02*
X100850000Y-76852380D01*
X100754761Y-76995238D01*
X100659523Y-77090476D01*
X100564285Y-77138095D01*
X143785714Y-75952380D02*
X143785714Y-74952380D01*
X144023809Y-74952380D01*
X144166666Y-75000000D01*
X144261904Y-75095238D01*
X144309523Y-75190476D01*
X144357142Y-75380952D01*
X144357142Y-75523809D01*
X144309523Y-75714285D01*
X144261904Y-75809523D01*
X144166666Y-75904761D01*
X144023809Y-75952380D01*
X143785714Y-75952380D01*
X145309523Y-75952380D02*
X144738095Y-75952380D01*
X145023809Y-75952380D02*
X145023809Y-74952380D01*
X144928571Y-75095238D01*
X144833333Y-75190476D01*
X144738095Y-75238095D01*
X146166666Y-75285714D02*
X146166666Y-75952380D01*
X145928571Y-74904761D02*
X145690476Y-75619047D01*
X146309523Y-75619047D01*
X141135714Y-77852380D02*
X140564285Y-77852380D01*
X140850000Y-77852380D02*
X140850000Y-76852380D01*
X140754761Y-76995238D01*
X140659523Y-77090476D01*
X140564285Y-77138095D01*
X183785714Y-75952380D02*
X183785714Y-74952380D01*
X184023809Y-74952380D01*
X184166666Y-75000000D01*
X184261904Y-75095238D01*
X184309523Y-75190476D01*
X184357142Y-75380952D01*
X184357142Y-75523809D01*
X184309523Y-75714285D01*
X184261904Y-75809523D01*
X184166666Y-75904761D01*
X184023809Y-75952380D01*
X183785714Y-75952380D01*
X185309523Y-75952380D02*
X184738095Y-75952380D01*
X185023809Y-75952380D02*
X185023809Y-74952380D01*
X184928571Y-75095238D01*
X184833333Y-75190476D01*
X184738095Y-75238095D01*
X185642857Y-74952380D02*
X186261904Y-74952380D01*
X185928571Y-75333333D01*
X186071428Y-75333333D01*
X186166666Y-75380952D01*
X186214285Y-75428571D01*
X186261904Y-75523809D01*
X186261904Y-75761904D01*
X186214285Y-75857142D01*
X186166666Y-75904761D01*
X186071428Y-75952380D01*
X185785714Y-75952380D01*
X185690476Y-75904761D01*
X185642857Y-75857142D01*
X181135714Y-77852380D02*
X180564285Y-77852380D01*
X180850000Y-77852380D02*
X180850000Y-76852380D01*
X180754761Y-76995238D01*
X180659523Y-77090476D01*
X180564285Y-77138095D01*
X183785714Y-122952380D02*
X183785714Y-121952380D01*
X184023809Y-121952380D01*
X184166666Y-122000000D01*
X184261904Y-122095238D01*
X184309523Y-122190476D01*
X184357142Y-122380952D01*
X184357142Y-122523809D01*
X184309523Y-122714285D01*
X184261904Y-122809523D01*
X184166666Y-122904761D01*
X184023809Y-122952380D01*
X183785714Y-122952380D01*
X185309523Y-122952380D02*
X184738095Y-122952380D01*
X185023809Y-122952380D02*
X185023809Y-121952380D01*
X184928571Y-122095238D01*
X184833333Y-122190476D01*
X184738095Y-122238095D01*
X185690476Y-122047619D02*
X185738095Y-122000000D01*
X185833333Y-121952380D01*
X186071428Y-121952380D01*
X186166666Y-122000000D01*
X186214285Y-122047619D01*
X186261904Y-122142857D01*
X186261904Y-122238095D01*
X186214285Y-122380952D01*
X185642857Y-122952380D01*
X186261904Y-122952380D01*
X189435714Y-121052380D02*
X188864285Y-121052380D01*
X189150000Y-121052380D02*
X189150000Y-120052380D01*
X189054761Y-120195238D01*
X188959523Y-120290476D01*
X188864285Y-120338095D01*
X143785714Y-122952380D02*
X143785714Y-121952380D01*
X144023809Y-121952380D01*
X144166666Y-122000000D01*
X144261904Y-122095238D01*
X144309523Y-122190476D01*
X144357142Y-122380952D01*
X144357142Y-122523809D01*
X144309523Y-122714285D01*
X144261904Y-122809523D01*
X144166666Y-122904761D01*
X144023809Y-122952380D01*
X143785714Y-122952380D01*
X145309523Y-122952380D02*
X144738095Y-122952380D01*
X145023809Y-122952380D02*
X145023809Y-121952380D01*
X144928571Y-122095238D01*
X144833333Y-122190476D01*
X144738095Y-122238095D01*
X146261904Y-122952380D02*
X145690476Y-122952380D01*
X145976190Y-122952380D02*
X145976190Y-121952380D01*
X145880952Y-122095238D01*
X145785714Y-122190476D01*
X145690476Y-122238095D01*
X149435714Y-121052380D02*
X148864285Y-121052380D01*
X149150000Y-121052380D02*
X149150000Y-120052380D01*
X149054761Y-120195238D01*
X148959523Y-120290476D01*
X148864285Y-120338095D01*
X103785714Y-122952380D02*
X103785714Y-121952380D01*
X104023809Y-121952380D01*
X104166666Y-122000000D01*
X104261904Y-122095238D01*
X104309523Y-122190476D01*
X104357142Y-122380952D01*
X104357142Y-122523809D01*
X104309523Y-122714285D01*
X104261904Y-122809523D01*
X104166666Y-122904761D01*
X104023809Y-122952380D01*
X103785714Y-122952380D01*
X105309523Y-122952380D02*
X104738095Y-122952380D01*
X105023809Y-122952380D02*
X105023809Y-121952380D01*
X104928571Y-122095238D01*
X104833333Y-122190476D01*
X104738095Y-122238095D01*
X105928571Y-121952380D02*
X106023809Y-121952380D01*
X106119047Y-122000000D01*
X106166666Y-122047619D01*
X106214285Y-122142857D01*
X106261904Y-122333333D01*
X106261904Y-122571428D01*
X106214285Y-122761904D01*
X106166666Y-122857142D01*
X106119047Y-122904761D01*
X106023809Y-122952380D01*
X105928571Y-122952380D01*
X105833333Y-122904761D01*
X105785714Y-122857142D01*
X105738095Y-122761904D01*
X105690476Y-122571428D01*
X105690476Y-122333333D01*
X105738095Y-122142857D01*
X105785714Y-122047619D01*
X105833333Y-122000000D01*
X105928571Y-121952380D01*
X109435714Y-121052380D02*
X108864285Y-121052380D01*
X109150000Y-121052380D02*
X109150000Y-120052380D01*
X109054761Y-120195238D01*
X108959523Y-120290476D01*
X108864285Y-120338095D01*
X64261904Y-122952380D02*
X64261904Y-121952380D01*
X64500000Y-121952380D01*
X64642857Y-122000000D01*
X64738095Y-122095238D01*
X64785714Y-122190476D01*
X64833333Y-122380952D01*
X64833333Y-122523809D01*
X64785714Y-122714285D01*
X64738095Y-122809523D01*
X64642857Y-122904761D01*
X64500000Y-122952380D01*
X64261904Y-122952380D01*
X65309523Y-122952380D02*
X65500000Y-122952380D01*
X65595238Y-122904761D01*
X65642857Y-122857142D01*
X65738095Y-122714285D01*
X65785714Y-122523809D01*
X65785714Y-122142857D01*
X65738095Y-122047619D01*
X65690476Y-122000000D01*
X65595238Y-121952380D01*
X65404761Y-121952380D01*
X65309523Y-122000000D01*
X65261904Y-122047619D01*
X65214285Y-122142857D01*
X65214285Y-122380952D01*
X65261904Y-122476190D01*
X65309523Y-122523809D01*
X65404761Y-122571428D01*
X65595238Y-122571428D01*
X65690476Y-122523809D01*
X65738095Y-122476190D01*
X65785714Y-122380952D01*
X69435714Y-121052380D02*
X68864285Y-121052380D01*
X69150000Y-121052380D02*
X69150000Y-120052380D01*
X69054761Y-120195238D01*
X68959523Y-120290476D01*
X68864285Y-120338095D01*
X64261904Y-155952380D02*
X64261904Y-154952380D01*
X64500000Y-154952380D01*
X64642857Y-155000000D01*
X64738095Y-155095238D01*
X64785714Y-155190476D01*
X64833333Y-155380952D01*
X64833333Y-155523809D01*
X64785714Y-155714285D01*
X64738095Y-155809523D01*
X64642857Y-155904761D01*
X64500000Y-155952380D01*
X64261904Y-155952380D01*
X65404761Y-155380952D02*
X65309523Y-155333333D01*
X65261904Y-155285714D01*
X65214285Y-155190476D01*
X65214285Y-155142857D01*
X65261904Y-155047619D01*
X65309523Y-155000000D01*
X65404761Y-154952380D01*
X65595238Y-154952380D01*
X65690476Y-155000000D01*
X65738095Y-155047619D01*
X65785714Y-155142857D01*
X65785714Y-155190476D01*
X65738095Y-155285714D01*
X65690476Y-155333333D01*
X65595238Y-155380952D01*
X65404761Y-155380952D01*
X65309523Y-155428571D01*
X65261904Y-155476190D01*
X65214285Y-155571428D01*
X65214285Y-155761904D01*
X65261904Y-155857142D01*
X65309523Y-155904761D01*
X65404761Y-155952380D01*
X65595238Y-155952380D01*
X65690476Y-155904761D01*
X65738095Y-155857142D01*
X65785714Y-155761904D01*
X65785714Y-155571428D01*
X65738095Y-155476190D01*
X65690476Y-155428571D01*
X65595238Y-155380952D01*
X61135714Y-157852380D02*
X60564285Y-157852380D01*
X60850000Y-157852380D02*
X60850000Y-156852380D01*
X60754761Y-156995238D01*
X60659523Y-157090476D01*
X60564285Y-157138095D01*
X104261904Y-155952380D02*
X104261904Y-154952380D01*
X104500000Y-154952380D01*
X104642857Y-155000000D01*
X104738095Y-155095238D01*
X104785714Y-155190476D01*
X104833333Y-155380952D01*
X104833333Y-155523809D01*
X104785714Y-155714285D01*
X104738095Y-155809523D01*
X104642857Y-155904761D01*
X104500000Y-155952380D01*
X104261904Y-155952380D01*
X105166666Y-154952380D02*
X105833333Y-154952380D01*
X105404761Y-155952380D01*
X101135714Y-157852380D02*
X100564285Y-157852380D01*
X100850000Y-157852380D02*
X100850000Y-156852380D01*
X100754761Y-156995238D01*
X100659523Y-157090476D01*
X100564285Y-157138095D01*
X144261904Y-155952380D02*
X144261904Y-154952380D01*
X144500000Y-154952380D01*
X144642857Y-155000000D01*
X144738095Y-155095238D01*
X144785714Y-155190476D01*
X144833333Y-155380952D01*
X144833333Y-155523809D01*
X144785714Y-155714285D01*
X144738095Y-155809523D01*
X144642857Y-155904761D01*
X144500000Y-155952380D01*
X144261904Y-155952380D01*
X145690476Y-154952380D02*
X145500000Y-154952380D01*
X145404761Y-155000000D01*
X145357142Y-155047619D01*
X145261904Y-155190476D01*
X145214285Y-155380952D01*
X145214285Y-155761904D01*
X145261904Y-155857142D01*
X145309523Y-155904761D01*
X145404761Y-155952380D01*
X145595238Y-155952380D01*
X145690476Y-155904761D01*
X145738095Y-155857142D01*
X145785714Y-155761904D01*
X145785714Y-155523809D01*
X145738095Y-155428571D01*
X145690476Y-155380952D01*
X145595238Y-155333333D01*
X145404761Y-155333333D01*
X145309523Y-155380952D01*
X145261904Y-155428571D01*
X145214285Y-155523809D01*
X141135714Y-157852380D02*
X140564285Y-157852380D01*
X140850000Y-157852380D02*
X140850000Y-156852380D01*
X140754761Y-156995238D01*
X140659523Y-157090476D01*
X140564285Y-157138095D01*
X184261904Y-155952380D02*
X184261904Y-154952380D01*
X184500000Y-154952380D01*
X184642857Y-155000000D01*
X184738095Y-155095238D01*
X184785714Y-155190476D01*
X184833333Y-155380952D01*
X184833333Y-155523809D01*
X184785714Y-155714285D01*
X184738095Y-155809523D01*
X184642857Y-155904761D01*
X184500000Y-155952380D01*
X184261904Y-155952380D01*
X185738095Y-154952380D02*
X185261904Y-154952380D01*
X185214285Y-155428571D01*
X185261904Y-155380952D01*
X185357142Y-155333333D01*
X185595238Y-155333333D01*
X185690476Y-155380952D01*
X185738095Y-155428571D01*
X185785714Y-155523809D01*
X185785714Y-155761904D01*
X185738095Y-155857142D01*
X185690476Y-155904761D01*
X185595238Y-155952380D01*
X185357142Y-155952380D01*
X185261904Y-155904761D01*
X185214285Y-155857142D01*
X181135714Y-157852380D02*
X180564285Y-157852380D01*
X180850000Y-157852380D02*
X180850000Y-156852380D01*
X180754761Y-156995238D01*
X180659523Y-157090476D01*
X180564285Y-157138095D01*
X184261904Y-202952380D02*
X184261904Y-201952380D01*
X184500000Y-201952380D01*
X184642857Y-202000000D01*
X184738095Y-202095238D01*
X184785714Y-202190476D01*
X184833333Y-202380952D01*
X184833333Y-202523809D01*
X184785714Y-202714285D01*
X184738095Y-202809523D01*
X184642857Y-202904761D01*
X184500000Y-202952380D01*
X184261904Y-202952380D01*
X185690476Y-202285714D02*
X185690476Y-202952380D01*
X185452380Y-201904761D02*
X185214285Y-202619047D01*
X185833333Y-202619047D01*
X189435714Y-201052380D02*
X188864285Y-201052380D01*
X189150000Y-201052380D02*
X189150000Y-200052380D01*
X189054761Y-200195238D01*
X188959523Y-200290476D01*
X188864285Y-200338095D01*
X144261904Y-202952380D02*
X144261904Y-201952380D01*
X144500000Y-201952380D01*
X144642857Y-202000000D01*
X144738095Y-202095238D01*
X144785714Y-202190476D01*
X144833333Y-202380952D01*
X144833333Y-202523809D01*
X144785714Y-202714285D01*
X144738095Y-202809523D01*
X144642857Y-202904761D01*
X144500000Y-202952380D01*
X144261904Y-202952380D01*
X145166666Y-201952380D02*
X145785714Y-201952380D01*
X145452380Y-202333333D01*
X145595238Y-202333333D01*
X145690476Y-202380952D01*
X145738095Y-202428571D01*
X145785714Y-202523809D01*
X145785714Y-202761904D01*
X145738095Y-202857142D01*
X145690476Y-202904761D01*
X145595238Y-202952380D01*
X145309523Y-202952380D01*
X145214285Y-202904761D01*
X145166666Y-202857142D01*
X149435714Y-201052380D02*
X148864285Y-201052380D01*
X149150000Y-201052380D02*
X149150000Y-200052380D01*
X149054761Y-200195238D01*
X148959523Y-200290476D01*
X148864285Y-200338095D01*
X104261904Y-202952380D02*
X104261904Y-201952380D01*
X104500000Y-201952380D01*
X104642857Y-202000000D01*
X104738095Y-202095238D01*
X104785714Y-202190476D01*
X104833333Y-202380952D01*
X104833333Y-202523809D01*
X104785714Y-202714285D01*
X104738095Y-202809523D01*
X104642857Y-202904761D01*
X104500000Y-202952380D01*
X104261904Y-202952380D01*
X105214285Y-202047619D02*
X105261904Y-202000000D01*
X105357142Y-201952380D01*
X105595238Y-201952380D01*
X105690476Y-202000000D01*
X105738095Y-202047619D01*
X105785714Y-202142857D01*
X105785714Y-202238095D01*
X105738095Y-202380952D01*
X105166666Y-202952380D01*
X105785714Y-202952380D01*
X109435714Y-201052380D02*
X108864285Y-201052380D01*
X109150000Y-201052380D02*
X109150000Y-200052380D01*
X109054761Y-200195238D01*
X108959523Y-200290476D01*
X108864285Y-200338095D01*
X64261904Y-202952380D02*
X64261904Y-201952380D01*
X64500000Y-201952380D01*
X64642857Y-202000000D01*
X64738095Y-202095238D01*
X64785714Y-202190476D01*
X64833333Y-202380952D01*
X64833333Y-202523809D01*
X64785714Y-202714285D01*
X64738095Y-202809523D01*
X64642857Y-202904761D01*
X64500000Y-202952380D01*
X64261904Y-202952380D01*
X65785714Y-202952380D02*
X65214285Y-202952380D01*
X65500000Y-202952380D02*
X65500000Y-201952380D01*
X65404761Y-202095238D01*
X65309523Y-202190476D01*
X65214285Y-202238095D01*
X69435714Y-201052380D02*
X68864285Y-201052380D01*
X69150000Y-201052380D02*
X69150000Y-200052380D01*
X69054761Y-200195238D01*
X68959523Y-200290476D01*
X68864285Y-200338095D01*
M02*
