M48
; DRILL file {KiCad (5.1.5)-3} date 10/7/2021 1:12:52 AM
; FORMAT={-:-/ absolute / inch / decimal}
; #@! TF.CreationDate,2021-10-07T01:12:52-04:00
; #@! TF.GenerationSoftware,Kicad,Pcbnew,(5.1.5)-3
; #@! TF.FileFunction,Plated,1,2,PTH
FMAT,2
INCH
T1C0.0157
T2C0.0394
%
G90
G05
T1
X1.3189Y-7.7756
X1.5732Y-4.2724
X1.5732Y-7.0224
X1.7991Y-3.3746
X2.2191Y-3.1746
X2.3031Y-7.7953
X2.3228Y-4.8909
X2.3228Y-6.0909
X2.5591Y-3.1191
X2.5591Y-4.7043
X2.5591Y-6.2494
X2.5591Y-7.8346
X4.1339Y-3.1191
X4.1339Y-4.7043
X4.1339Y-6.2494
X4.1339Y-7.8346
X5.6894Y-6.2494
X5.7087Y-3.1191
X5.7087Y-4.7043
X5.7087Y-7.8346
X7.2835Y-3.1191
X7.2835Y-4.7043
X7.2835Y-6.2494
X7.2835Y-7.8346
X7.4791Y-4.5746
X7.4791Y-7.7346
X7.5191Y-3.3346
X7.5191Y-6.5746
T2
X0.9843Y-7.4803
X0.9843Y-7.5803
X0.9843Y-7.6803
X0.9843Y-7.7803
X0.9843Y-7.8803
X0.9843Y-7.9803
T0
M30
