G04 #@! TF.GenerationSoftware,KiCad,Pcbnew,(5.1.5)-3*
G04 #@! TF.CreationDate,2021-10-07T01:12:50-04:00*
G04 #@! TF.ProjectId,RIGHT_Side Panel,52494748-545f-4536-9964-652050616e65,rev?*
G04 #@! TF.SameCoordinates,Original*
G04 #@! TF.FileFunction,Paste,Top*
G04 #@! TF.FilePolarity,Positive*
%FSLAX46Y46*%
G04 Gerber Fmt 4.6, Leading zero omitted, Abs format (unit mm)*
G04 Created by KiCad (PCBNEW (5.1.5)-3) date 2021-10-07 01:12:50*
%MOMM*%
%LPD*%
G04 APERTURE LIST*
%ADD10R,1.500000X1.000000*%
G04 APERTURE END LIST*
D10*
X62550000Y-77400000D03*
X62550000Y-80600000D03*
X67450000Y-77400000D03*
X67450000Y-80600000D03*
X102550000Y-77400000D03*
X102550000Y-80600000D03*
X107450000Y-77400000D03*
X107450000Y-80600000D03*
X142550000Y-77400000D03*
X142550000Y-80600000D03*
X147450000Y-77400000D03*
X147450000Y-80600000D03*
X182550000Y-77400000D03*
X182550000Y-80600000D03*
X187450000Y-77400000D03*
X187450000Y-80600000D03*
X187450000Y-120600000D03*
X187450000Y-117400000D03*
X182550000Y-120600000D03*
X182550000Y-117400000D03*
X147450000Y-120600000D03*
X147450000Y-117400000D03*
X142550000Y-120600000D03*
X142550000Y-117400000D03*
X107450000Y-120600000D03*
X107450000Y-117400000D03*
X102550000Y-120600000D03*
X102550000Y-117400000D03*
X62550000Y-117400000D03*
X62550000Y-120600000D03*
X67450000Y-117400000D03*
X67450000Y-120600000D03*
X67450000Y-160600000D03*
X67450000Y-157400000D03*
X62550000Y-160600000D03*
X62550000Y-157400000D03*
X107450000Y-160600000D03*
X107450000Y-157400000D03*
X102550000Y-160600000D03*
X102550000Y-157400000D03*
X142550000Y-157400000D03*
X142550000Y-160600000D03*
X147450000Y-157400000D03*
X147450000Y-160600000D03*
X182550000Y-157400000D03*
X182550000Y-160600000D03*
X187450000Y-157400000D03*
X187450000Y-160600000D03*
X187450000Y-200600000D03*
X187450000Y-197400000D03*
X182550000Y-200600000D03*
X182550000Y-197400000D03*
X147450000Y-200600000D03*
X147450000Y-197400000D03*
X142550000Y-200600000D03*
X142550000Y-197400000D03*
X107450000Y-200600000D03*
X107450000Y-197400000D03*
X102550000Y-200600000D03*
X102550000Y-197400000D03*
X67450000Y-200600000D03*
X67450000Y-197400000D03*
X62550000Y-200600000D03*
X62550000Y-197400000D03*
M02*
