G04 #@! TF.GenerationSoftware,KiCad,Pcbnew,(5.1.5)-3*
G04 #@! TF.CreationDate,2021-10-07T01:20:47-04:00*
G04 #@! TF.ProjectId,LEFT_Side Panel,4c454654-5f53-4696-9465-2050616e656c,rev?*
G04 #@! TF.SameCoordinates,Original*
G04 #@! TF.FileFunction,Legend,Bot*
G04 #@! TF.FilePolarity,Positive*
%FSLAX46Y46*%
G04 Gerber Fmt 4.6, Leading zero omitted, Abs format (unit mm)*
G04 Created by KiCad (PCBNEW (5.1.5)-3) date 2021-10-07 01:20:47*
%MOMM*%
%LPD*%
G04 APERTURE LIST*
%ADD10C,0.200000*%
%ADD11C,0.120000*%
%ADD12C,0.150000*%
G04 APERTURE END LIST*
D10*
X21727142Y-189123809D02*
X22489047Y-189123809D01*
X22565238Y-189885714D01*
X22489047Y-189809523D01*
X22336666Y-189733333D01*
X21955714Y-189733333D01*
X21803333Y-189809523D01*
X21727142Y-189885714D01*
X21650952Y-190038095D01*
X21650952Y-190419047D01*
X21727142Y-190571428D01*
X21803333Y-190647619D01*
X21955714Y-190723809D01*
X22336666Y-190723809D01*
X22489047Y-190647619D01*
X22565238Y-190571428D01*
X21193809Y-189123809D02*
X20660476Y-190723809D01*
X20127142Y-189123809D01*
X21727142Y-191723809D02*
X22489047Y-191723809D01*
X22565238Y-192485714D01*
X22489047Y-192409523D01*
X22336666Y-192333333D01*
X21955714Y-192333333D01*
X21803333Y-192409523D01*
X21727142Y-192485714D01*
X21650952Y-192638095D01*
X21650952Y-193019047D01*
X21727142Y-193171428D01*
X21803333Y-193247619D01*
X21955714Y-193323809D01*
X22336666Y-193323809D01*
X22489047Y-193247619D01*
X22565238Y-193171428D01*
X21193809Y-191723809D02*
X20660476Y-193323809D01*
X20127142Y-191723809D01*
X22489047Y-195923809D02*
X22489047Y-194323809D01*
X22108095Y-194323809D01*
X21879523Y-194400000D01*
X21727142Y-194552380D01*
X21650952Y-194704761D01*
X21574761Y-195009523D01*
X21574761Y-195238095D01*
X21650952Y-195542857D01*
X21727142Y-195695238D01*
X21879523Y-195847619D01*
X22108095Y-195923809D01*
X22489047Y-195923809D01*
X20203333Y-195923809D02*
X20203333Y-195085714D01*
X20279523Y-194933333D01*
X20431904Y-194857142D01*
X20736666Y-194857142D01*
X20889047Y-194933333D01*
X20203333Y-195847619D02*
X20355714Y-195923809D01*
X20736666Y-195923809D01*
X20889047Y-195847619D01*
X20965238Y-195695238D01*
X20965238Y-195542857D01*
X20889047Y-195390476D01*
X20736666Y-195314285D01*
X20355714Y-195314285D01*
X20203333Y-195238095D01*
X19670000Y-194857142D02*
X19060476Y-194857142D01*
X19441428Y-194323809D02*
X19441428Y-195695238D01*
X19365238Y-195847619D01*
X19212857Y-195923809D01*
X19060476Y-195923809D01*
X17841428Y-195923809D02*
X17841428Y-195085714D01*
X17917619Y-194933333D01*
X18070000Y-194857142D01*
X18374761Y-194857142D01*
X18527142Y-194933333D01*
X17841428Y-195847619D02*
X17993809Y-195923809D01*
X18374761Y-195923809D01*
X18527142Y-195847619D01*
X18603333Y-195695238D01*
X18603333Y-195542857D01*
X18527142Y-195390476D01*
X18374761Y-195314285D01*
X17993809Y-195314285D01*
X17841428Y-195238095D01*
X15555714Y-194323809D02*
X15250952Y-194323809D01*
X15098571Y-194400000D01*
X14946190Y-194552380D01*
X14870000Y-194857142D01*
X14870000Y-195390476D01*
X14946190Y-195695238D01*
X15098571Y-195847619D01*
X15250952Y-195923809D01*
X15555714Y-195923809D01*
X15708095Y-195847619D01*
X15860476Y-195695238D01*
X15936666Y-195390476D01*
X15936666Y-194857142D01*
X15860476Y-194552380D01*
X15708095Y-194400000D01*
X15555714Y-194323809D01*
X13498571Y-194857142D02*
X13498571Y-195923809D01*
X14184285Y-194857142D02*
X14184285Y-195695238D01*
X14108095Y-195847619D01*
X13955714Y-195923809D01*
X13727142Y-195923809D01*
X13574761Y-195847619D01*
X13498571Y-195771428D01*
X12965238Y-194857142D02*
X12355714Y-194857142D01*
X12736666Y-194323809D02*
X12736666Y-195695238D01*
X12660476Y-195847619D01*
X12508095Y-195923809D01*
X12355714Y-195923809D01*
X22489047Y-198523809D02*
X22489047Y-196923809D01*
X22108095Y-196923809D01*
X21879523Y-197000000D01*
X21727142Y-197152380D01*
X21650952Y-197304761D01*
X21574761Y-197609523D01*
X21574761Y-197838095D01*
X21650952Y-198142857D01*
X21727142Y-198295238D01*
X21879523Y-198447619D01*
X22108095Y-198523809D01*
X22489047Y-198523809D01*
X20203333Y-198523809D02*
X20203333Y-197685714D01*
X20279523Y-197533333D01*
X20431904Y-197457142D01*
X20736666Y-197457142D01*
X20889047Y-197533333D01*
X20203333Y-198447619D02*
X20355714Y-198523809D01*
X20736666Y-198523809D01*
X20889047Y-198447619D01*
X20965238Y-198295238D01*
X20965238Y-198142857D01*
X20889047Y-197990476D01*
X20736666Y-197914285D01*
X20355714Y-197914285D01*
X20203333Y-197838095D01*
X19670000Y-197457142D02*
X19060476Y-197457142D01*
X19441428Y-196923809D02*
X19441428Y-198295238D01*
X19365238Y-198447619D01*
X19212857Y-198523809D01*
X19060476Y-198523809D01*
X17841428Y-198523809D02*
X17841428Y-197685714D01*
X17917619Y-197533333D01*
X18070000Y-197457142D01*
X18374761Y-197457142D01*
X18527142Y-197533333D01*
X17841428Y-198447619D02*
X17993809Y-198523809D01*
X18374761Y-198523809D01*
X18527142Y-198447619D01*
X18603333Y-198295238D01*
X18603333Y-198142857D01*
X18527142Y-197990476D01*
X18374761Y-197914285D01*
X17993809Y-197914285D01*
X17841428Y-197838095D01*
X15860476Y-198523809D02*
X15860476Y-196923809D01*
X15098571Y-197457142D02*
X15098571Y-198523809D01*
X15098571Y-197609523D02*
X15022380Y-197533333D01*
X14870000Y-197457142D01*
X14641428Y-197457142D01*
X14489047Y-197533333D01*
X14412857Y-197685714D01*
X14412857Y-198523809D01*
X21650952Y-199600000D02*
X21803333Y-199523809D01*
X22031904Y-199523809D01*
X22260476Y-199600000D01*
X22412857Y-199752380D01*
X22489047Y-199904761D01*
X22565238Y-200209523D01*
X22565238Y-200438095D01*
X22489047Y-200742857D01*
X22412857Y-200895238D01*
X22260476Y-201047619D01*
X22031904Y-201123809D01*
X21879523Y-201123809D01*
X21650952Y-201047619D01*
X21574761Y-200971428D01*
X21574761Y-200438095D01*
X21879523Y-200438095D01*
X20889047Y-200057142D02*
X20889047Y-201123809D01*
X20889047Y-200209523D02*
X20812857Y-200133333D01*
X20660476Y-200057142D01*
X20431904Y-200057142D01*
X20279523Y-200133333D01*
X20203333Y-200285714D01*
X20203333Y-201123809D01*
X18755714Y-201123809D02*
X18755714Y-199523809D01*
X18755714Y-201047619D02*
X18908095Y-201123809D01*
X19212857Y-201123809D01*
X19365238Y-201047619D01*
X19441428Y-200971428D01*
X19517619Y-200819047D01*
X19517619Y-200361904D01*
X19441428Y-200209523D01*
X19365238Y-200133333D01*
X19212857Y-200057142D01*
X18908095Y-200057142D01*
X18755714Y-200133333D01*
X21650952Y-202200000D02*
X21803333Y-202123809D01*
X22031904Y-202123809D01*
X22260476Y-202200000D01*
X22412857Y-202352380D01*
X22489047Y-202504761D01*
X22565238Y-202809523D01*
X22565238Y-203038095D01*
X22489047Y-203342857D01*
X22412857Y-203495238D01*
X22260476Y-203647619D01*
X22031904Y-203723809D01*
X21879523Y-203723809D01*
X21650952Y-203647619D01*
X21574761Y-203571428D01*
X21574761Y-203038095D01*
X21879523Y-203038095D01*
X20889047Y-202657142D02*
X20889047Y-203723809D01*
X20889047Y-202809523D02*
X20812857Y-202733333D01*
X20660476Y-202657142D01*
X20431904Y-202657142D01*
X20279523Y-202733333D01*
X20203333Y-202885714D01*
X20203333Y-203723809D01*
X18755714Y-203723809D02*
X18755714Y-202123809D01*
X18755714Y-203647619D02*
X18908095Y-203723809D01*
X19212857Y-203723809D01*
X19365238Y-203647619D01*
X19441428Y-203571428D01*
X19517619Y-203419047D01*
X19517619Y-202961904D01*
X19441428Y-202809523D01*
X19365238Y-202733333D01*
X19212857Y-202657142D01*
X18908095Y-202657142D01*
X18755714Y-202733333D01*
D11*
X26330000Y-188670000D02*
X25000000Y-188670000D01*
X26330000Y-190000000D02*
X26330000Y-188670000D01*
X26330000Y-191270000D02*
X23670000Y-191270000D01*
X23670000Y-191270000D02*
X23670000Y-204030000D01*
X26330000Y-191270000D02*
X26330000Y-204030000D01*
X26330000Y-204030000D02*
X23670000Y-204030000D01*
X68650000Y-76250000D02*
X68650000Y-77400000D01*
X61350000Y-76250000D02*
X68650000Y-76250000D01*
X61350000Y-81750000D02*
X68650000Y-81750000D01*
X108650000Y-76250000D02*
X108650000Y-77400000D01*
X101350000Y-76250000D02*
X108650000Y-76250000D01*
X101350000Y-81750000D02*
X108650000Y-81750000D01*
X148650000Y-76250000D02*
X148650000Y-77400000D01*
X141350000Y-76250000D02*
X148650000Y-76250000D01*
X141350000Y-81750000D02*
X148650000Y-81750000D01*
X188650000Y-76250000D02*
X188650000Y-77400000D01*
X181350000Y-76250000D02*
X188650000Y-76250000D01*
X181350000Y-81750000D02*
X188650000Y-81750000D01*
X181350000Y-121750000D02*
X181350000Y-120600000D01*
X188650000Y-121750000D02*
X181350000Y-121750000D01*
X188650000Y-116250000D02*
X181350000Y-116250000D01*
X141350000Y-121750000D02*
X141350000Y-120600000D01*
X148650000Y-121750000D02*
X141350000Y-121750000D01*
X148650000Y-116250000D02*
X141350000Y-116250000D01*
X101350000Y-121750000D02*
X101350000Y-120600000D01*
X108650000Y-121750000D02*
X101350000Y-121750000D01*
X108650000Y-116250000D02*
X101350000Y-116250000D01*
X68650000Y-116250000D02*
X61350000Y-116250000D01*
X68650000Y-121750000D02*
X61350000Y-121750000D01*
X61350000Y-121750000D02*
X61350000Y-120600000D01*
X61350000Y-161750000D02*
X68650000Y-161750000D01*
X61350000Y-156250000D02*
X68650000Y-156250000D01*
X68650000Y-156250000D02*
X68650000Y-157400000D01*
X101350000Y-161750000D02*
X108650000Y-161750000D01*
X101350000Y-156250000D02*
X108650000Y-156250000D01*
X108650000Y-156250000D02*
X108650000Y-157400000D01*
X148650000Y-156250000D02*
X148650000Y-157400000D01*
X141350000Y-156250000D02*
X148650000Y-156250000D01*
X141350000Y-161750000D02*
X148650000Y-161750000D01*
X188650000Y-156250000D02*
X188650000Y-157400000D01*
X181350000Y-156250000D02*
X188650000Y-156250000D01*
X181350000Y-161750000D02*
X188650000Y-161750000D01*
X181350000Y-201750000D02*
X181350000Y-200600000D01*
X188650000Y-201750000D02*
X181350000Y-201750000D01*
X188650000Y-196250000D02*
X181350000Y-196250000D01*
X141350000Y-201750000D02*
X141350000Y-200600000D01*
X148650000Y-201750000D02*
X141350000Y-201750000D01*
X148650000Y-196250000D02*
X141350000Y-196250000D01*
X101350000Y-201750000D02*
X101350000Y-200600000D01*
X108650000Y-201750000D02*
X101350000Y-201750000D01*
X108650000Y-196250000D02*
X101350000Y-196250000D01*
X61350000Y-201750000D02*
X61350000Y-200600000D01*
X68650000Y-201750000D02*
X61350000Y-201750000D01*
X68650000Y-196250000D02*
X61350000Y-196250000D01*
D12*
X25333333Y-187122380D02*
X25333333Y-187836666D01*
X25380952Y-187979523D01*
X25476190Y-188074761D01*
X25619047Y-188122380D01*
X25714285Y-188122380D01*
X24333333Y-188122380D02*
X24904761Y-188122380D01*
X24619047Y-188122380D02*
X24619047Y-187122380D01*
X24714285Y-187265238D01*
X24809523Y-187360476D01*
X24904761Y-187408095D01*
X66214285Y-82952380D02*
X66214285Y-81952380D01*
X65976190Y-81952380D01*
X65833333Y-82000000D01*
X65738095Y-82095238D01*
X65690476Y-82190476D01*
X65642857Y-82380952D01*
X65642857Y-82523809D01*
X65690476Y-82714285D01*
X65738095Y-82809523D01*
X65833333Y-82904761D01*
X65976190Y-82952380D01*
X66214285Y-82952380D01*
X64690476Y-82952380D02*
X65261904Y-82952380D01*
X64976190Y-82952380D02*
X64976190Y-81952380D01*
X65071428Y-82095238D01*
X65166666Y-82190476D01*
X65261904Y-82238095D01*
X63833333Y-81952380D02*
X64023809Y-81952380D01*
X64119047Y-82000000D01*
X64166666Y-82047619D01*
X64261904Y-82190476D01*
X64309523Y-82380952D01*
X64309523Y-82761904D01*
X64261904Y-82857142D01*
X64214285Y-82904761D01*
X64119047Y-82952380D01*
X63928571Y-82952380D01*
X63833333Y-82904761D01*
X63785714Y-82857142D01*
X63738095Y-82761904D01*
X63738095Y-82523809D01*
X63785714Y-82428571D01*
X63833333Y-82380952D01*
X63928571Y-82333333D01*
X64119047Y-82333333D01*
X64214285Y-82380952D01*
X64261904Y-82428571D01*
X64309523Y-82523809D01*
X60564285Y-81052380D02*
X61135714Y-81052380D01*
X60850000Y-81052380D02*
X60850000Y-80052380D01*
X60945238Y-80195238D01*
X61040476Y-80290476D01*
X61135714Y-80338095D01*
X106214285Y-82952380D02*
X106214285Y-81952380D01*
X105976190Y-81952380D01*
X105833333Y-82000000D01*
X105738095Y-82095238D01*
X105690476Y-82190476D01*
X105642857Y-82380952D01*
X105642857Y-82523809D01*
X105690476Y-82714285D01*
X105738095Y-82809523D01*
X105833333Y-82904761D01*
X105976190Y-82952380D01*
X106214285Y-82952380D01*
X104690476Y-82952380D02*
X105261904Y-82952380D01*
X104976190Y-82952380D02*
X104976190Y-81952380D01*
X105071428Y-82095238D01*
X105166666Y-82190476D01*
X105261904Y-82238095D01*
X103785714Y-81952380D02*
X104261904Y-81952380D01*
X104309523Y-82428571D01*
X104261904Y-82380952D01*
X104166666Y-82333333D01*
X103928571Y-82333333D01*
X103833333Y-82380952D01*
X103785714Y-82428571D01*
X103738095Y-82523809D01*
X103738095Y-82761904D01*
X103785714Y-82857142D01*
X103833333Y-82904761D01*
X103928571Y-82952380D01*
X104166666Y-82952380D01*
X104261904Y-82904761D01*
X104309523Y-82857142D01*
X100564285Y-81052380D02*
X101135714Y-81052380D01*
X100850000Y-81052380D02*
X100850000Y-80052380D01*
X100945238Y-80195238D01*
X101040476Y-80290476D01*
X101135714Y-80338095D01*
X146214285Y-82952380D02*
X146214285Y-81952380D01*
X145976190Y-81952380D01*
X145833333Y-82000000D01*
X145738095Y-82095238D01*
X145690476Y-82190476D01*
X145642857Y-82380952D01*
X145642857Y-82523809D01*
X145690476Y-82714285D01*
X145738095Y-82809523D01*
X145833333Y-82904761D01*
X145976190Y-82952380D01*
X146214285Y-82952380D01*
X144690476Y-82952380D02*
X145261904Y-82952380D01*
X144976190Y-82952380D02*
X144976190Y-81952380D01*
X145071428Y-82095238D01*
X145166666Y-82190476D01*
X145261904Y-82238095D01*
X143833333Y-82285714D02*
X143833333Y-82952380D01*
X144071428Y-81904761D02*
X144309523Y-82619047D01*
X143690476Y-82619047D01*
X140564285Y-81052380D02*
X141135714Y-81052380D01*
X140850000Y-81052380D02*
X140850000Y-80052380D01*
X140945238Y-80195238D01*
X141040476Y-80290476D01*
X141135714Y-80338095D01*
X186214285Y-82952380D02*
X186214285Y-81952380D01*
X185976190Y-81952380D01*
X185833333Y-82000000D01*
X185738095Y-82095238D01*
X185690476Y-82190476D01*
X185642857Y-82380952D01*
X185642857Y-82523809D01*
X185690476Y-82714285D01*
X185738095Y-82809523D01*
X185833333Y-82904761D01*
X185976190Y-82952380D01*
X186214285Y-82952380D01*
X184690476Y-82952380D02*
X185261904Y-82952380D01*
X184976190Y-82952380D02*
X184976190Y-81952380D01*
X185071428Y-82095238D01*
X185166666Y-82190476D01*
X185261904Y-82238095D01*
X184357142Y-81952380D02*
X183738095Y-81952380D01*
X184071428Y-82333333D01*
X183928571Y-82333333D01*
X183833333Y-82380952D01*
X183785714Y-82428571D01*
X183738095Y-82523809D01*
X183738095Y-82761904D01*
X183785714Y-82857142D01*
X183833333Y-82904761D01*
X183928571Y-82952380D01*
X184214285Y-82952380D01*
X184309523Y-82904761D01*
X184357142Y-82857142D01*
X180564285Y-81052380D02*
X181135714Y-81052380D01*
X180850000Y-81052380D02*
X180850000Y-80052380D01*
X180945238Y-80195238D01*
X181040476Y-80290476D01*
X181135714Y-80338095D01*
X186214285Y-115952380D02*
X186214285Y-114952380D01*
X185976190Y-114952380D01*
X185833333Y-115000000D01*
X185738095Y-115095238D01*
X185690476Y-115190476D01*
X185642857Y-115380952D01*
X185642857Y-115523809D01*
X185690476Y-115714285D01*
X185738095Y-115809523D01*
X185833333Y-115904761D01*
X185976190Y-115952380D01*
X186214285Y-115952380D01*
X184690476Y-115952380D02*
X185261904Y-115952380D01*
X184976190Y-115952380D02*
X184976190Y-114952380D01*
X185071428Y-115095238D01*
X185166666Y-115190476D01*
X185261904Y-115238095D01*
X184309523Y-115047619D02*
X184261904Y-115000000D01*
X184166666Y-114952380D01*
X183928571Y-114952380D01*
X183833333Y-115000000D01*
X183785714Y-115047619D01*
X183738095Y-115142857D01*
X183738095Y-115238095D01*
X183785714Y-115380952D01*
X184357142Y-115952380D01*
X183738095Y-115952380D01*
X188864285Y-117852380D02*
X189435714Y-117852380D01*
X189150000Y-117852380D02*
X189150000Y-116852380D01*
X189245238Y-116995238D01*
X189340476Y-117090476D01*
X189435714Y-117138095D01*
X146214285Y-115952380D02*
X146214285Y-114952380D01*
X145976190Y-114952380D01*
X145833333Y-115000000D01*
X145738095Y-115095238D01*
X145690476Y-115190476D01*
X145642857Y-115380952D01*
X145642857Y-115523809D01*
X145690476Y-115714285D01*
X145738095Y-115809523D01*
X145833333Y-115904761D01*
X145976190Y-115952380D01*
X146214285Y-115952380D01*
X144690476Y-115952380D02*
X145261904Y-115952380D01*
X144976190Y-115952380D02*
X144976190Y-114952380D01*
X145071428Y-115095238D01*
X145166666Y-115190476D01*
X145261904Y-115238095D01*
X143738095Y-115952380D02*
X144309523Y-115952380D01*
X144023809Y-115952380D02*
X144023809Y-114952380D01*
X144119047Y-115095238D01*
X144214285Y-115190476D01*
X144309523Y-115238095D01*
X148864285Y-117852380D02*
X149435714Y-117852380D01*
X149150000Y-117852380D02*
X149150000Y-116852380D01*
X149245238Y-116995238D01*
X149340476Y-117090476D01*
X149435714Y-117138095D01*
X106214285Y-115952380D02*
X106214285Y-114952380D01*
X105976190Y-114952380D01*
X105833333Y-115000000D01*
X105738095Y-115095238D01*
X105690476Y-115190476D01*
X105642857Y-115380952D01*
X105642857Y-115523809D01*
X105690476Y-115714285D01*
X105738095Y-115809523D01*
X105833333Y-115904761D01*
X105976190Y-115952380D01*
X106214285Y-115952380D01*
X104690476Y-115952380D02*
X105261904Y-115952380D01*
X104976190Y-115952380D02*
X104976190Y-114952380D01*
X105071428Y-115095238D01*
X105166666Y-115190476D01*
X105261904Y-115238095D01*
X104071428Y-114952380D02*
X103976190Y-114952380D01*
X103880952Y-115000000D01*
X103833333Y-115047619D01*
X103785714Y-115142857D01*
X103738095Y-115333333D01*
X103738095Y-115571428D01*
X103785714Y-115761904D01*
X103833333Y-115857142D01*
X103880952Y-115904761D01*
X103976190Y-115952380D01*
X104071428Y-115952380D01*
X104166666Y-115904761D01*
X104214285Y-115857142D01*
X104261904Y-115761904D01*
X104309523Y-115571428D01*
X104309523Y-115333333D01*
X104261904Y-115142857D01*
X104214285Y-115047619D01*
X104166666Y-115000000D01*
X104071428Y-114952380D01*
X108864285Y-117852380D02*
X109435714Y-117852380D01*
X109150000Y-117852380D02*
X109150000Y-116852380D01*
X109245238Y-116995238D01*
X109340476Y-117090476D01*
X109435714Y-117138095D01*
X65738095Y-115952380D02*
X65738095Y-114952380D01*
X65500000Y-114952380D01*
X65357142Y-115000000D01*
X65261904Y-115095238D01*
X65214285Y-115190476D01*
X65166666Y-115380952D01*
X65166666Y-115523809D01*
X65214285Y-115714285D01*
X65261904Y-115809523D01*
X65357142Y-115904761D01*
X65500000Y-115952380D01*
X65738095Y-115952380D01*
X64690476Y-115952380D02*
X64500000Y-115952380D01*
X64404761Y-115904761D01*
X64357142Y-115857142D01*
X64261904Y-115714285D01*
X64214285Y-115523809D01*
X64214285Y-115142857D01*
X64261904Y-115047619D01*
X64309523Y-115000000D01*
X64404761Y-114952380D01*
X64595238Y-114952380D01*
X64690476Y-115000000D01*
X64738095Y-115047619D01*
X64785714Y-115142857D01*
X64785714Y-115380952D01*
X64738095Y-115476190D01*
X64690476Y-115523809D01*
X64595238Y-115571428D01*
X64404761Y-115571428D01*
X64309523Y-115523809D01*
X64261904Y-115476190D01*
X64214285Y-115380952D01*
X68864285Y-117852380D02*
X69435714Y-117852380D01*
X69150000Y-117852380D02*
X69150000Y-116852380D01*
X69245238Y-116995238D01*
X69340476Y-117090476D01*
X69435714Y-117138095D01*
X65738095Y-162952380D02*
X65738095Y-161952380D01*
X65500000Y-161952380D01*
X65357142Y-162000000D01*
X65261904Y-162095238D01*
X65214285Y-162190476D01*
X65166666Y-162380952D01*
X65166666Y-162523809D01*
X65214285Y-162714285D01*
X65261904Y-162809523D01*
X65357142Y-162904761D01*
X65500000Y-162952380D01*
X65738095Y-162952380D01*
X64595238Y-162380952D02*
X64690476Y-162333333D01*
X64738095Y-162285714D01*
X64785714Y-162190476D01*
X64785714Y-162142857D01*
X64738095Y-162047619D01*
X64690476Y-162000000D01*
X64595238Y-161952380D01*
X64404761Y-161952380D01*
X64309523Y-162000000D01*
X64261904Y-162047619D01*
X64214285Y-162142857D01*
X64214285Y-162190476D01*
X64261904Y-162285714D01*
X64309523Y-162333333D01*
X64404761Y-162380952D01*
X64595238Y-162380952D01*
X64690476Y-162428571D01*
X64738095Y-162476190D01*
X64785714Y-162571428D01*
X64785714Y-162761904D01*
X64738095Y-162857142D01*
X64690476Y-162904761D01*
X64595238Y-162952380D01*
X64404761Y-162952380D01*
X64309523Y-162904761D01*
X64261904Y-162857142D01*
X64214285Y-162761904D01*
X64214285Y-162571428D01*
X64261904Y-162476190D01*
X64309523Y-162428571D01*
X64404761Y-162380952D01*
X60564285Y-161052380D02*
X61135714Y-161052380D01*
X60850000Y-161052380D02*
X60850000Y-160052380D01*
X60945238Y-160195238D01*
X61040476Y-160290476D01*
X61135714Y-160338095D01*
X105738095Y-162952380D02*
X105738095Y-161952380D01*
X105500000Y-161952380D01*
X105357142Y-162000000D01*
X105261904Y-162095238D01*
X105214285Y-162190476D01*
X105166666Y-162380952D01*
X105166666Y-162523809D01*
X105214285Y-162714285D01*
X105261904Y-162809523D01*
X105357142Y-162904761D01*
X105500000Y-162952380D01*
X105738095Y-162952380D01*
X104833333Y-161952380D02*
X104166666Y-161952380D01*
X104595238Y-162952380D01*
X100564285Y-161052380D02*
X101135714Y-161052380D01*
X100850000Y-161052380D02*
X100850000Y-160052380D01*
X100945238Y-160195238D01*
X101040476Y-160290476D01*
X101135714Y-160338095D01*
X145738095Y-162952380D02*
X145738095Y-161952380D01*
X145500000Y-161952380D01*
X145357142Y-162000000D01*
X145261904Y-162095238D01*
X145214285Y-162190476D01*
X145166666Y-162380952D01*
X145166666Y-162523809D01*
X145214285Y-162714285D01*
X145261904Y-162809523D01*
X145357142Y-162904761D01*
X145500000Y-162952380D01*
X145738095Y-162952380D01*
X144309523Y-161952380D02*
X144500000Y-161952380D01*
X144595238Y-162000000D01*
X144642857Y-162047619D01*
X144738095Y-162190476D01*
X144785714Y-162380952D01*
X144785714Y-162761904D01*
X144738095Y-162857142D01*
X144690476Y-162904761D01*
X144595238Y-162952380D01*
X144404761Y-162952380D01*
X144309523Y-162904761D01*
X144261904Y-162857142D01*
X144214285Y-162761904D01*
X144214285Y-162523809D01*
X144261904Y-162428571D01*
X144309523Y-162380952D01*
X144404761Y-162333333D01*
X144595238Y-162333333D01*
X144690476Y-162380952D01*
X144738095Y-162428571D01*
X144785714Y-162523809D01*
X140564285Y-161052380D02*
X141135714Y-161052380D01*
X140850000Y-161052380D02*
X140850000Y-160052380D01*
X140945238Y-160195238D01*
X141040476Y-160290476D01*
X141135714Y-160338095D01*
X185738095Y-162952380D02*
X185738095Y-161952380D01*
X185500000Y-161952380D01*
X185357142Y-162000000D01*
X185261904Y-162095238D01*
X185214285Y-162190476D01*
X185166666Y-162380952D01*
X185166666Y-162523809D01*
X185214285Y-162714285D01*
X185261904Y-162809523D01*
X185357142Y-162904761D01*
X185500000Y-162952380D01*
X185738095Y-162952380D01*
X184261904Y-161952380D02*
X184738095Y-161952380D01*
X184785714Y-162428571D01*
X184738095Y-162380952D01*
X184642857Y-162333333D01*
X184404761Y-162333333D01*
X184309523Y-162380952D01*
X184261904Y-162428571D01*
X184214285Y-162523809D01*
X184214285Y-162761904D01*
X184261904Y-162857142D01*
X184309523Y-162904761D01*
X184404761Y-162952380D01*
X184642857Y-162952380D01*
X184738095Y-162904761D01*
X184785714Y-162857142D01*
X180564285Y-161052380D02*
X181135714Y-161052380D01*
X180850000Y-161052380D02*
X180850000Y-160052380D01*
X180945238Y-160195238D01*
X181040476Y-160290476D01*
X181135714Y-160338095D01*
X185738095Y-195952380D02*
X185738095Y-194952380D01*
X185500000Y-194952380D01*
X185357142Y-195000000D01*
X185261904Y-195095238D01*
X185214285Y-195190476D01*
X185166666Y-195380952D01*
X185166666Y-195523809D01*
X185214285Y-195714285D01*
X185261904Y-195809523D01*
X185357142Y-195904761D01*
X185500000Y-195952380D01*
X185738095Y-195952380D01*
X184309523Y-195285714D02*
X184309523Y-195952380D01*
X184547619Y-194904761D02*
X184785714Y-195619047D01*
X184166666Y-195619047D01*
X188864285Y-197852380D02*
X189435714Y-197852380D01*
X189150000Y-197852380D02*
X189150000Y-196852380D01*
X189245238Y-196995238D01*
X189340476Y-197090476D01*
X189435714Y-197138095D01*
X145738095Y-195952380D02*
X145738095Y-194952380D01*
X145500000Y-194952380D01*
X145357142Y-195000000D01*
X145261904Y-195095238D01*
X145214285Y-195190476D01*
X145166666Y-195380952D01*
X145166666Y-195523809D01*
X145214285Y-195714285D01*
X145261904Y-195809523D01*
X145357142Y-195904761D01*
X145500000Y-195952380D01*
X145738095Y-195952380D01*
X144833333Y-194952380D02*
X144214285Y-194952380D01*
X144547619Y-195333333D01*
X144404761Y-195333333D01*
X144309523Y-195380952D01*
X144261904Y-195428571D01*
X144214285Y-195523809D01*
X144214285Y-195761904D01*
X144261904Y-195857142D01*
X144309523Y-195904761D01*
X144404761Y-195952380D01*
X144690476Y-195952380D01*
X144785714Y-195904761D01*
X144833333Y-195857142D01*
X148864285Y-197852380D02*
X149435714Y-197852380D01*
X149150000Y-197852380D02*
X149150000Y-196852380D01*
X149245238Y-196995238D01*
X149340476Y-197090476D01*
X149435714Y-197138095D01*
X105738095Y-195952380D02*
X105738095Y-194952380D01*
X105500000Y-194952380D01*
X105357142Y-195000000D01*
X105261904Y-195095238D01*
X105214285Y-195190476D01*
X105166666Y-195380952D01*
X105166666Y-195523809D01*
X105214285Y-195714285D01*
X105261904Y-195809523D01*
X105357142Y-195904761D01*
X105500000Y-195952380D01*
X105738095Y-195952380D01*
X104785714Y-195047619D02*
X104738095Y-195000000D01*
X104642857Y-194952380D01*
X104404761Y-194952380D01*
X104309523Y-195000000D01*
X104261904Y-195047619D01*
X104214285Y-195142857D01*
X104214285Y-195238095D01*
X104261904Y-195380952D01*
X104833333Y-195952380D01*
X104214285Y-195952380D01*
X108864285Y-197852380D02*
X109435714Y-197852380D01*
X109150000Y-197852380D02*
X109150000Y-196852380D01*
X109245238Y-196995238D01*
X109340476Y-197090476D01*
X109435714Y-197138095D01*
X65738095Y-195952380D02*
X65738095Y-194952380D01*
X65500000Y-194952380D01*
X65357142Y-195000000D01*
X65261904Y-195095238D01*
X65214285Y-195190476D01*
X65166666Y-195380952D01*
X65166666Y-195523809D01*
X65214285Y-195714285D01*
X65261904Y-195809523D01*
X65357142Y-195904761D01*
X65500000Y-195952380D01*
X65738095Y-195952380D01*
X64214285Y-195952380D02*
X64785714Y-195952380D01*
X64500000Y-195952380D02*
X64500000Y-194952380D01*
X64595238Y-195095238D01*
X64690476Y-195190476D01*
X64785714Y-195238095D01*
X68864285Y-197852380D02*
X69435714Y-197852380D01*
X69150000Y-197852380D02*
X69150000Y-196852380D01*
X69245238Y-196995238D01*
X69340476Y-197090476D01*
X69435714Y-197138095D01*
M02*
