M48
; DRILL file {KiCad (5.1.5)-3} date 10/7/2021 1:20:45 AM
; FORMAT={-:-/ absolute / inch / decimal}
; #@! TF.CreationDate,2021-10-07T01:20:45-04:00
; #@! TF.GenerationSoftware,Kicad,Pcbnew,(5.1.5)-3
; #@! TF.FileFunction,Plated,1,2,PTH
FMAT,2
INCH
T1C0.0157
T2C0.0394
%
G90
G05
T1
X1.5232Y-7.7724
X1.5732Y-4.2724
X1.5732Y-7.0224
X2.0232Y-3.1724
X2.3232Y-7.7724
X2.3622Y-4.6457
X2.3622Y-6.1811
X2.5591Y-3.1102
X2.5591Y-4.685
X2.5591Y-6.2598
X2.5591Y-7.8346
X4.1339Y-3.1102
X4.1339Y-4.685
X4.1339Y-6.2598
X4.1339Y-7.8346
X5.7087Y-3.1102
X5.7087Y-4.685
X5.7087Y-6.2598
X5.7087Y-7.8346
X7.2835Y-3.1102
X7.2835Y-4.685
X7.2835Y-6.2598
X7.2835Y-7.8346
X7.4803Y-3.189
X7.4803Y-4.7244
X7.4803Y-6.3386
X7.4803Y-7.874
T2
X0.9843Y-7.4803
X0.9843Y-7.5803
X0.9843Y-7.6803
X0.9843Y-7.7803
X0.9843Y-7.8803
X0.9843Y-7.9803
T0
M30
